<svg width="45" height="46" viewBox="0 0 45 46" fill="none" xmlns="http://www.w3.org/2000/svg">
<path d="M35.3333 36.2501C32.8821 36.2501 30.9167 38.2155 30.9167 40.6668C30.9167 41.8381 31.382 42.9615 32.2103 43.7898C33.0386 44.6181 34.162 45.0834 35.3333 45.0834C36.5047 45.0834 37.6281 44.6181 38.4564 43.7898C39.2847 42.9615 39.75 41.8381 39.75 40.6668C39.75 39.4954 39.2847 38.372 38.4564 37.5437C37.6281 36.7154 36.5047 36.2501 35.3333 36.2501ZM0 0.916748V5.33342H4.41667L12.3667 22.0947L9.36333 27.5051C9.03208 28.1234 8.83333 28.8522 8.83333 29.6251C8.83333 30.7965 9.29866 31.9199 10.1269 32.7481C10.9552 33.5764 12.0786 34.0418 13.25 34.0418H39.75V29.6251H14.1775C14.0311 29.6251 13.8907 29.5669 13.7871 29.4634C13.6836 29.3598 13.6254 29.2194 13.6254 29.073C13.6254 28.9626 13.6475 28.8743 13.6917 28.808L15.6792 25.2084H32.1313C33.7875 25.2084 35.245 24.2809 35.9958 22.9338L43.9017 8.64592C44.0563 8.29258 44.1667 7.91717 44.1667 7.54175C44.1667 6.95606 43.934 6.39436 43.5199 5.98022C43.1057 5.56608 42.544 5.33342 41.9583 5.33342H9.29708L7.22125 0.916748M13.25 36.2501C10.7988 36.2501 8.83333 38.2155 8.83333 40.6668C8.83333 41.8381 9.29866 42.9615 10.1269 43.7898C10.9552 44.6181 12.0786 45.0834 13.25 45.0834C14.4214 45.0834 15.5448 44.6181 16.3731 43.7898C17.2013 42.9615 17.6667 41.8381 17.6667 40.6668C17.6667 39.4954 17.2013 38.372 16.3731 37.5437C15.5448 36.7154 14.4214 36.2501 13.25 36.2501Z" fill="url(#paint0_linear_37_546)"/>
<defs>
<linearGradient id="paint0_linear_37_546" x1="5" y1="22.9167" x2="62.5" y2="22.9167" gradientUnits="userSpaceOnUse">
<stop stop-color="#DBBD51"/>
<stop offset="0.315" stop-color="#B1832B"/>
<stop offset="0.635" stop-color="#DFC25E"/>
<stop offset="1" stop-color="#B3862E"/>
</linearGradient>
</defs>
</svg>
