<svg width="34" height="33" viewBox="0 0 34 33" fill="none" xmlns="http://www.w3.org/2000/svg">
<path fill-rule="evenodd" clip-rule="evenodd" d="M2.17578 4.125H23.0586L23.2713 4.26035C23.3809 4.3377 23.5355 4.47305 23.6064 4.56973C23.7031 4.69863 23.7353 4.83398 23.7353 5.15625C23.7353 5.47207 23.7031 5.62031 23.6064 5.74922C23.5355 5.8459 23.3615 5.9877 23.2197 6.05859C22.9684 6.18105 22.833 6.1875 12.6623 6.1875C4.23183 6.1875 2.33046 6.17461 2.16288 6.10371C2.04687 6.05215 1.87285 5.92324 1.77617 5.81367C1.67304 5.69766 1.57636 5.49785 1.55703 5.36895C1.53769 5.23359 1.53769 5.0209 1.56347 4.89844C1.58925 4.7502 1.70527 4.57617 1.89218 4.40215L2.17578 4.125ZM22.717 7.79883C23.3873 7.79883 23.8062 7.83105 24.2639 7.92129C24.6119 7.99219 25.1082 8.12754 25.3789 8.21777C25.6432 8.31445 26.0363 8.48203 26.249 8.58516C26.4617 8.69473 26.8484 8.92676 27.1191 9.10723C27.3834 9.2877 27.8281 9.65508 28.1117 9.91934C28.3889 10.19 28.782 10.6219 28.9818 10.8926C29.1816 11.1568 29.4781 11.6338 29.6457 11.9561C29.8068 12.2719 30.0195 12.7488 30.1033 13.0195C30.1935 13.2838 30.316 13.7156 30.374 13.9863C30.4256 14.2506 30.49 14.7855 30.5094 15.1787C30.5416 15.6814 30.5158 16.0939 30.4385 16.6289C30.3805 17.035 30.2451 17.615 30.1484 17.918C30.0518 18.2145 29.8584 18.6785 29.7295 18.9492C29.5941 19.2135 29.375 19.5938 29.2396 19.8C29.0978 20.0063 28.9883 20.1932 28.9883 20.2189C28.9883 20.2447 29.723 21.0053 30.6254 21.9141C31.7146 22.9969 32.3012 23.635 32.3656 23.7961C32.4236 23.9314 32.4687 24.1184 32.4687 24.215C32.4687 24.3117 32.4043 24.518 32.3205 24.6727C32.2367 24.8467 32.0885 25.0014 31.9531 25.0787C31.8242 25.1432 31.6051 25.2012 31.4504 25.2012C31.3021 25.2012 31.0959 25.1689 30.9992 25.1303C30.9025 25.0916 30.0711 24.3053 27.4736 21.7143L27.0225 22.0107C26.7711 22.1783 26.3586 22.4104 26.1008 22.5264C25.843 22.6488 25.4111 22.8229 25.134 22.9131C24.8633 23.0033 24.3734 23.1193 24.0576 23.1709C23.7353 23.2225 23.1553 23.2611 22.7685 23.2676C22.3754 23.2676 21.7953 23.2225 21.4795 23.1645C21.1572 23.1129 20.6674 22.9904 20.3838 22.9002C20.1002 22.81 19.6168 22.6166 19.3203 22.4684C19.0174 22.3201 18.5533 22.0494 18.2891 21.8561C18.0184 21.6691 17.6059 21.3211 17.3609 21.0826C17.1225 20.8441 16.7615 20.4381 16.5553 20.1738C16.3555 19.9031 16.0525 19.4262 15.8914 19.1104C15.7238 18.7881 15.5176 18.3111 15.4273 18.0469C15.3371 17.7762 15.2146 17.3443 15.1566 17.0801C15.0793 16.7385 15.0406 16.2873 15.0406 15.5654C15.0406 14.792 15.0664 14.3924 15.1566 13.9863C15.2211 13.6834 15.3435 13.2322 15.4338 12.9873C15.524 12.7359 15.7174 12.2848 15.8721 11.9883C16.0203 11.6854 16.3168 11.2084 16.5295 10.9248C16.7422 10.6348 17.1482 10.1836 17.4383 9.90645C17.7283 9.6293 18.2053 9.24902 18.4953 9.06211C18.7918 8.86875 19.1721 8.64316 19.3525 8.55293C19.5266 8.4627 19.8875 8.31445 20.1582 8.21777C20.4225 8.12754 20.8994 7.99219 21.2217 7.92773C21.6213 7.84395 22.0789 7.80527 22.717 7.79883ZM20.3838 10.3641C20.1002 10.4994 19.7199 10.7057 19.5459 10.8281C19.3654 10.9506 19.0367 11.2213 18.8111 11.434C18.5855 11.6467 18.2375 12.0721 18.0312 12.375C17.8314 12.6715 17.5736 13.1613 17.4641 13.4514C17.348 13.7414 17.2127 14.2377 17.1611 14.5471C17.1031 14.8564 17.0644 15.3141 17.0644 15.5654C17.0644 15.8104 17.1031 16.2293 17.1547 16.5C17.1998 16.7643 17.3158 17.1961 17.4125 17.4668C17.5027 17.7311 17.7025 18.15 17.8508 18.4014C17.999 18.6463 18.2568 19.0072 18.418 19.207C18.5791 19.4004 18.9143 19.7227 19.1592 19.9225C19.4041 20.1223 19.7973 20.3865 20.0293 20.5154C20.2549 20.6443 20.6223 20.8055 20.835 20.8828C21.0476 20.9537 21.415 21.0568 21.6535 21.1084C21.892 21.16 22.3947 21.2051 22.7685 21.2051C23.1359 21.2051 23.6387 21.16 23.8771 21.1084C24.1156 21.0568 24.4894 20.9537 24.7021 20.8828C24.9148 20.8055 25.2758 20.6443 25.5078 20.5154C25.7334 20.3865 26.0814 20.1609 26.2812 20.0127C26.4746 19.8645 26.7775 19.5809 26.9516 19.3939C27.1256 19.2006 27.3898 18.8525 27.5381 18.627C27.6928 18.3949 27.8926 18.034 27.9828 17.8213C28.0795 17.6021 28.2213 17.1961 28.2922 16.9189C28.4082 16.5064 28.434 16.2229 28.434 15.5332C28.434 14.8307 28.4082 14.5535 28.2922 14.1281C28.2148 13.8381 28.0666 13.4127 27.9699 13.1936C27.8668 12.9744 27.6605 12.6006 27.5059 12.375C27.3512 12.143 27.074 11.7949 26.8935 11.608C26.7131 11.4146 26.3973 11.1311 26.1846 10.9699C25.9719 10.8152 25.5658 10.5639 25.2822 10.4221C24.9986 10.2803 24.4894 10.0934 24.1543 10.0096C23.658 9.88711 23.3809 9.85488 22.7363 9.86133C22.1627 9.86777 21.776 9.90645 21.415 9.99668C21.1314 10.0676 20.6674 10.2287 20.3838 10.3641ZM12.456 9.79688L12.7074 9.93867C12.8492 10.016 13.0232 10.1836 13.0941 10.3125C13.1715 10.4414 13.223 10.6541 13.223 10.8281C13.223 11.0086 13.1715 11.202 13.0812 11.3566C12.9975 11.4984 12.8299 11.6531 12.6816 11.7305C12.4303 11.8529 12.2949 11.8594 7.39648 11.8594C3.35527 11.8594 2.32402 11.84 2.15644 11.7691C2.04042 11.724 1.8664 11.5951 1.76972 11.4791C1.67304 11.3695 1.57636 11.1697 1.55703 11.0344C1.53124 10.899 1.53124 10.6992 1.55703 10.5832C1.57636 10.4672 1.66015 10.2803 1.74394 10.1707C1.82773 10.0611 1.99531 9.93223 2.11777 9.88711C2.29179 9.81621 3.34238 9.79688 12.456 9.79688ZM12.456 15.4688L12.7074 15.6105C12.8492 15.6879 13.0232 15.8555 13.0941 15.9844C13.1715 16.1133 13.223 16.326 13.223 16.5C13.223 16.6805 13.1715 16.8738 13.0812 17.0285C12.9975 17.1703 12.8299 17.325 12.6816 17.4023C12.4303 17.5248 12.2949 17.5312 7.39648 17.5312C3.35527 17.5312 2.32402 17.5119 2.15644 17.441C2.04042 17.3959 1.8664 17.267 1.76972 17.151C1.67304 17.0414 1.57636 16.8416 1.55703 16.7063C1.53124 16.5709 1.53124 16.3711 1.55703 16.2551C1.57636 16.1391 1.66015 15.9521 1.74394 15.8426C1.82773 15.733 1.99531 15.6041 2.11777 15.559C2.29179 15.4881 3.34238 15.4688 12.456 15.4688ZM12.456 21.1406L12.7074 21.2824C12.8492 21.3598 13.0232 21.5273 13.0941 21.6562C13.1715 21.7852 13.223 21.9979 13.223 22.1719C13.223 22.3523 13.1715 22.5457 13.0812 22.7004C12.9975 22.8422 12.8299 22.9969 12.6816 23.0742C12.4303 23.1967 12.2949 23.2031 7.39648 23.2031C3.35527 23.2031 2.32402 23.1838 2.15644 23.1129C2.04042 23.0678 1.8664 22.9389 1.76972 22.8229C1.67304 22.7133 1.57636 22.5135 1.55703 22.3781C1.53124 22.2428 1.53124 22.043 1.55703 21.927C1.57636 21.8109 1.66015 21.624 1.74394 21.5145C1.82773 21.4049 1.99531 21.276 2.11777 21.2309C2.29179 21.16 3.34238 21.1406 12.456 21.1406ZM13.049 26.8125C21.834 26.8125 23.8062 26.8254 23.9738 26.8963C24.0898 26.9414 24.2639 27.0703 24.3605 27.1863C24.4572 27.2959 24.5539 27.4828 24.5797 27.5988C24.599 27.7148 24.599 27.9275 24.5732 28.0693C24.541 28.2563 24.4508 28.398 23.9609 28.875H2.17578L1.89218 28.5979C1.68593 28.398 1.5957 28.2563 1.55703 28.0693C1.53769 27.9275 1.53124 27.7148 1.55703 27.5988C1.57636 27.4828 1.66015 27.2959 1.74394 27.1863C1.82773 27.0768 1.99531 26.9479 2.11777 26.9027C2.29179 26.8318 4.29628 26.8125 13.049 26.8125Z" fill="white"/>
</svg>
