<svg width="116" height="116" viewBox="0 0 116 116" fill="none" xmlns="http://www.w3.org/2000/svg">
<circle cx="58" cy="58" r="58" fill="url(#paint0_linear_662_117)"/>
<path d="M80.6801 35.3201C81.5228 36.1639 81.9962 37.3076 81.9962 38.5001C81.9962 39.6926 81.5228 40.8364 80.6801 41.6801L64.3661 58.0001L80.6801 74.3201C81.0977 74.7377 81.429 75.2335 81.655 75.7791C81.881 76.3248 81.9973 76.9095 81.9973 77.5001C81.9973 78.0907 81.881 78.6755 81.655 79.2211C81.429 79.7668 81.0977 80.2625 80.6801 80.6801C80.2625 81.0977 79.7667 81.429 79.2211 81.655C78.6755 81.881 78.0907 81.9973 77.5001 81.9973C76.9095 81.9973 76.3247 81.881 75.7791 81.655C75.2335 81.429 74.7377 81.0977 74.3201 80.6801L58.0001 64.3661L41.6801 80.6801C40.8367 81.5235 39.6928 81.9973 38.5001 81.9973C37.3074 81.9973 36.1635 81.5235 35.3201 80.6801C34.4767 79.8367 34.0029 78.6929 34.0029 77.5001C34.0029 76.3074 34.4767 75.1635 35.3201 74.3201L51.6341 58.0001L35.3201 41.6801C34.4767 40.8367 34.0029 39.6929 34.0029 38.5001C34.0029 37.3074 34.4767 36.1635 35.3201 35.3201C36.1635 34.4767 37.3074 34.0029 38.5001 34.0029C39.6928 34.0029 40.8367 34.4767 41.6801 35.3201L58.0001 51.6341L74.3201 35.3201C75.1639 34.4774 76.3076 34.0041 77.5001 34.0041C78.6926 34.0041 79.8364 34.4774 80.6801 35.3201Z" fill="white"/>
<defs>
<linearGradient id="paint0_linear_662_117" x1="21.75" y1="10.875" x2="96.0625" y2="105.729" gradientUnits="userSpaceOnUse">
<stop stop-color="#B1832B"/>
<stop offset="0.35" stop-color="#DEC05D"/>
<stop offset="0.675" stop-color="#B98E34"/>
<stop offset="1" stop-color="#D9BB50"/>
</linearGradient>
</defs>
</svg>
