<svg width="70" height="70" viewBox="0 0 70 70" fill="none" xmlns="http://www.w3.org/2000/svg">
<circle cx="35" cy="35" r="35" fill="url(#paint0_linear_662_119)"/>
<path fill-rule="evenodd" clip-rule="evenodd" d="M33.6036 18.0985C25.9748 19.0354 19.9791 25.1169 19.1896 32.7188C19.0726 33.8454 19.1435 35.9787 19.3337 37.0554C19.6349 38.7603 20.1333 40.2603 20.9079 41.7931L21.2971 42.5634L20.1374 46.7733C19.4995 49.0887 18.9878 50.9907 19.0002 50.9999C19.0127 51.009 20.9554 50.509 23.3174 49.8889C26.756 48.986 27.6465 48.7743 27.7852 48.8269C27.8804 48.8629 28.3324 49.0611 28.7895 49.2671C30.2744 49.9362 31.8336 50.38 33.4744 50.6005C34.6146 50.7538 36.6158 50.7529 37.725 50.5986C41.3658 50.0921 44.6185 48.4921 47.1823 45.9465C48.5229 44.6155 49.4144 43.398 50.2631 41.7391C51.0274 40.2451 51.5667 38.6165 51.868 36.8921C52.0442 35.8842 52.0439 32.9226 51.8676 31.8664C51.5697 30.0821 51.1099 28.6564 50.3243 27.0817C48.0886 22.6006 43.9599 19.4062 39.0233 18.3381C37.4845 18.0052 35.1896 17.9037 33.6036 18.0985ZM37.9328 20.9478C39.9198 21.313 41.5675 21.9728 43.1971 23.0556C45.9793 24.9044 48.0273 27.7752 48.8368 30.9611C49.4314 33.3007 49.3846 35.958 48.7094 38.2077C47.6177 41.8452 45.0157 44.9071 41.6106 46.5609C39.631 47.5224 37.7992 47.9417 35.5777 47.9417C33.0316 47.9417 30.7745 47.3276 28.471 46.0082L28.0831 45.786L25.5338 46.4517C24.1317 46.8178 22.9739 47.1068 22.9609 47.0939C22.9479 47.081 23.2356 45.9906 23.6002 44.6708C23.9647 43.351 24.2657 42.2226 24.269 42.1633C24.2722 42.104 24.093 41.7611 23.8706 41.4014C20.6038 36.1171 21.46 29.1483 25.9175 24.741C28.1348 22.5487 30.9419 21.2014 34.0885 20.8193C34.9383 20.7161 37.0574 20.7869 37.9328 20.9478ZM29.1114 26.9548C28.7109 27.1519 27.9789 28.0111 27.6729 28.6434C27.0718 29.8855 27.084 31.4512 27.7062 32.901C28.4708 34.6826 30.4712 37.2123 32.446 38.8946C33.8303 40.0737 34.9868 40.7647 36.686 41.4275C38.4218 42.1046 38.7547 42.1826 39.9069 42.1821C40.8131 42.1818 40.9569 42.1646 41.3783 42.0068C42.0711 41.7474 42.5882 41.4206 43.1033 40.9166C43.503 40.5255 43.5835 40.4032 43.7143 39.9872C43.8775 39.4686 43.9708 38.634 43.8978 38.3451C43.8597 38.194 43.664 38.0714 42.6799 37.5817C40.8769 36.6845 40.1501 36.3758 39.8413 36.3758C39.5882 36.3758 39.5451 36.4066 39.2391 36.806C38.5397 37.7191 37.898 38.4262 37.7308 38.4679C37.5305 38.5179 37.137 38.3747 36.2281 37.921C34.7566 37.1865 33.5561 36.2043 32.5239 34.8904C31.9622 34.1754 31.4563 33.3606 31.4563 33.1708C31.4563 33.0895 31.7168 32.6853 32.0351 32.2726C32.659 31.4638 32.8417 31.1619 32.8417 30.9398C32.8417 30.8619 32.7064 30.4808 32.5411 30.0931C32.3757 29.7053 32.0423 28.9078 31.8 28.3209C31.4998 27.5935 31.289 27.1826 31.1378 27.0301L30.916 26.8064L30.1645 26.8064C29.5345 26.8064 29.3642 26.8304 29.1114 26.9548Z" fill="white"/>
<defs>
<linearGradient id="paint0_linear_662_119" x1="13.125" y1="6.5625" x2="57.9687" y2="63.8021" gradientUnits="userSpaceOnUse">
<stop stop-color="#B1832B"/>
<stop offset="0.35" stop-color="#DEC05D"/>
<stop offset="0.675" stop-color="#B98E34"/>
<stop offset="1" stop-color="#D9BB50"/>
</linearGradient>
</defs>
</svg>
