<svg width="70" height="70" viewBox="0 0 70 70" fill="none" xmlns="http://www.w3.org/2000/svg">
<circle cx="35" cy="35" r="35" fill="url(#paint0_linear_662_120)"/>
<path fill-rule="evenodd" clip-rule="evenodd" d="M46.4433 22.0814C46.2875 22.1253 43.3685 23.2986 39.9566 24.6887C36.5448 26.0787 30.6813 28.4674 26.9266 29.9969C23.172 31.5265 19.9583 32.8517 19.7851 32.9418C19.4406 33.121 19.0755 33.4977 19.0189 33.7321C18.925 34.1205 19.1882 34.615 19.6537 34.9251C19.9677 35.1343 26.2675 37.3722 26.4268 37.3311C26.479 37.3176 30.2239 34.8647 34.7486 31.8802C39.2733 28.8958 43.0461 26.4283 43.1326 26.397C43.3512 26.3178 43.6442 26.3582 43.7161 26.4774C43.8776 26.7455 44.1802 26.4506 33.8251 36.1164C30.6268 39.1018 30.3959 39.33 30.485 39.4191C30.5377 39.4717 32.9261 41.3778 35.7927 43.6548C39.6845 46.7463 41.0765 47.8208 41.288 47.8971C41.6994 48.0454 42.188 48.0325 42.5343 47.8643C42.8022 47.7341 43.2145 47.3357 43.3466 47.0792C43.4107 46.9549 48.0021 22.9868 48 22.7877C47.9974 22.5396 47.7922 22.1923 47.5892 22.0922C47.3484 21.9736 46.8423 21.9688 46.4433 22.0814Z" fill="white"/>
<defs>
<linearGradient id="paint0_linear_662_120" x1="13.125" y1="6.5625" x2="57.9687" y2="63.8021" gradientUnits="userSpaceOnUse">
<stop stop-color="#B1832B"/>
<stop offset="0.35" stop-color="#DEC05D"/>
<stop offset="0.675" stop-color="#B98E34"/>
<stop offset="1" stop-color="#D9BB50"/>
</linearGradient>
</defs>
</svg>
