<svg width="70" height="70" viewBox="0 0 70 70" fill="none" xmlns="http://www.w3.org/2000/svg">
<circle cx="35" cy="35" r="35" fill="url(#paint0_linear_662_118)"/>
<path d="M35 29.85C33.8065 29.85 32.6619 30.3399 31.818 31.212C30.9741 32.084 30.5 33.2667 30.5 34.5C30.5 35.7333 30.9741 36.916 31.818 37.788C32.6619 38.6601 33.8065 39.15 35 39.15C36.1935 39.15 37.3381 38.6601 38.182 37.788C39.0259 36.916 39.5 35.7333 39.5 34.5C39.5 33.2667 39.0259 32.084 38.182 31.212C37.3381 30.3399 36.1935 29.85 35 29.85ZM35 26.75C36.9891 26.75 38.8968 27.5665 40.3033 29.0199C41.7098 30.4733 42.5 32.4446 42.5 34.5C42.5 36.5554 41.7098 38.5267 40.3033 39.9801C38.8968 41.4335 36.9891 42.25 35 42.25C33.0109 42.25 31.1032 41.4335 29.6967 39.9801C28.2902 38.5267 27.5 36.5554 27.5 34.5C27.5 32.4446 28.2902 30.4733 29.6967 29.0199C31.1032 27.5665 33.0109 26.75 35 26.75ZM44.75 26.3625C44.75 26.8764 44.5525 27.3692 44.2008 27.7325C43.8492 28.0959 43.3723 28.3 42.875 28.3C42.3777 28.3 41.9008 28.0959 41.5492 27.7325C41.1975 27.3692 41 26.8764 41 26.3625C41 25.8486 41.1975 25.3558 41.5492 24.9925C41.9008 24.6291 42.3777 24.425 42.875 24.425C43.3723 24.425 43.8492 24.6291 44.2008 24.9925C44.5525 25.3558 44.75 25.8486 44.75 26.3625ZM35 22.1C31.289 22.1 30.683 22.1109 28.9565 22.1899C27.7805 22.2473 26.9915 22.41 26.2595 22.7045C25.6085 22.9649 25.139 23.2764 24.6395 23.7941C24.17 24.2629 23.809 24.8351 23.5835 25.4681C23.2985 26.2276 23.141 27.0414 23.087 28.255C23.009 29.9662 23 30.5645 23 34.5C23 38.3347 23.0105 38.9609 23.087 40.7449C23.1425 41.9586 23.3 42.7754 23.5835 43.5303C23.8385 44.2045 24.1385 44.6897 24.6365 45.2043C25.142 45.7251 25.6115 46.0366 26.2565 46.2939C26.9975 46.59 27.7865 46.7543 28.9565 46.8101C30.6125 46.8907 31.1915 46.9 35 46.9C38.711 46.9 39.317 46.8891 41.0435 46.8101C42.2165 46.7527 43.007 46.59 43.739 46.297C44.3885 46.0351 44.861 45.7235 45.359 45.209C45.8645 44.6866 46.166 44.2015 46.415 43.535C46.7 42.7708 46.859 41.9539 46.913 40.7449C46.991 39.0337 47 38.4354 47 34.5C47 30.6653 46.9895 30.0391 46.913 28.255C46.8575 27.0429 46.7 26.2245 46.415 25.4681C46.1889 24.8358 45.8286 24.2637 45.3605 23.7941C44.9071 23.3088 44.3533 22.9357 43.7405 22.7029C43.0055 22.4084 42.2165 22.2457 41.0435 22.1899C39.3875 22.1093 38.8085 22.1 35 22.1ZM35 19C39.0755 19 39.584 19.0155 41.183 19.093C42.7805 19.1705 43.868 19.4294 44.825 19.8138C45.815 20.2075 46.649 20.7406 47.483 21.6009C48.2457 22.3757 48.8359 23.313 49.2125 24.3475C49.583 25.3348 49.835 26.4601 49.91 28.1109C49.9805 29.7632 50 30.2886 50 34.5C50 38.7113 49.985 39.2368 49.91 40.8891C49.835 42.5398 49.583 43.6636 49.2125 44.6525C48.837 45.6876 48.2467 46.6251 47.483 47.3991C46.7329 48.187 45.826 48.7968 44.825 49.1862C43.8695 49.5691 42.7805 49.8295 41.183 49.907C39.584 49.9799 39.0755 50 35 50C30.9245 50 30.416 49.9845 28.817 49.907C27.2195 49.8295 26.132 49.5691 25.175 49.1862C24.1735 48.7979 23.2663 48.188 22.517 47.3991C21.7541 46.6244 21.1639 45.6871 20.7875 44.6525C20.4155 43.6651 20.165 42.5398 20.09 40.8891C20.0195 39.2368 20 38.7113 20 34.5C20 30.2886 20.015 29.7632 20.09 28.1109C20.165 26.4586 20.4155 25.3364 20.7875 24.3475C21.1629 23.3124 21.7532 22.3748 22.517 21.6009C23.2665 20.8123 24.1736 20.2024 25.175 19.8138C26.132 19.4294 27.218 19.1705 28.817 19.093C30.416 19.0201 30.9245 19 35 19Z" fill="white"/>
<defs>
<linearGradient id="paint0_linear_662_118" x1="13.125" y1="6.5625" x2="57.9687" y2="63.8021" gradientUnits="userSpaceOnUse">
<stop stop-color="#B1832B"/>
<stop offset="0.35" stop-color="#DEC05D"/>
<stop offset="0.675" stop-color="#B98E34"/>
<stop offset="1" stop-color="#D9BB50"/>
</linearGradient>
</defs>
</svg>
