<svg width="30" height="31" viewBox="0 0 30 31" fill="none" xmlns="http://www.w3.org/2000/svg">
<path d="M15 10.85C13.8065 10.85 12.6619 11.3399 11.818 12.212C10.9741 13.084 10.5 14.2667 10.5 15.5C10.5 16.7333 10.9741 17.916 11.818 18.788C12.6619 19.6601 13.8065 20.15 15 20.15C16.1935 20.15 17.3381 19.6601 18.182 18.788C19.0259 17.916 19.5 16.7333 19.5 15.5C19.5 14.2667 19.0259 13.084 18.182 12.212C17.3381 11.3399 16.1935 10.85 15 10.85ZM15 7.75C16.9891 7.75 18.8968 8.56651 20.3033 10.0199C21.7098 11.4733 22.5 13.4446 22.5 15.5C22.5 17.5554 21.7098 19.5267 20.3033 20.9801C18.8968 22.4335 16.9891 23.25 15 23.25C13.0109 23.25 11.1032 22.4335 9.6967 20.9801C8.29018 19.5267 7.5 17.5554 7.5 15.5C7.5 13.4446 8.29018 11.4733 9.6967 10.0199C11.1032 8.56651 13.0109 7.75 15 7.75ZM24.75 7.3625C24.75 7.87636 24.5525 8.36917 24.2008 8.73252C23.8492 9.09587 23.3723 9.3 22.875 9.3C22.3777 9.3 21.9008 9.09587 21.5492 8.73252C21.1975 8.36917 21 7.87636 21 7.3625C21 6.84864 21.1975 6.35583 21.5492 5.99248C21.9008 5.62913 22.3777 5.425 22.875 5.425C23.3723 5.425 23.8492 5.62913 24.2008 5.99248C24.5525 6.35583 24.75 6.84864 24.75 7.3625ZM15 3.1C11.289 3.1 10.683 3.11085 8.9565 3.1899C7.7805 3.24725 6.9915 3.41 6.2595 3.7045C5.6085 3.9649 5.139 4.27645 4.6395 4.79415C4.17001 5.26287 3.80903 5.8351 3.5835 6.46815C3.2985 7.22765 3.141 8.0414 3.087 9.25505C3.009 10.9662 3 11.5645 3 15.5C3 19.3347 3.0105 19.9609 3.087 21.7449C3.1425 22.9586 3.3 23.7754 3.5835 24.5303C3.8385 25.2045 4.1385 25.6897 4.6365 26.2043C5.142 26.7251 5.6115 27.0366 6.2565 27.2939C6.9975 27.59 7.7865 27.7543 8.9565 27.8101C10.6125 27.8907 11.1915 27.9 15 27.9C18.711 27.9 19.317 27.8891 21.0435 27.8101C22.2165 27.7527 23.007 27.59 23.739 27.297C24.3885 27.0351 24.861 26.7235 25.359 26.209C25.8645 25.6866 26.166 25.2015 26.415 24.535C26.7 23.7708 26.859 22.9539 26.913 21.7449C26.991 20.0337 27 19.4354 27 15.5C27 11.6653 26.9895 11.0391 26.913 9.25505C26.8575 8.04295 26.7 7.22455 26.415 6.46815C26.1889 5.83575 25.8286 5.26374 25.3605 4.79415C24.9071 4.30876 24.3533 3.93571 23.7405 3.70295C23.0055 3.40845 22.2165 3.2457 21.0435 3.1899C19.3875 3.1093 18.8085 3.1 15 3.1ZM15 0C19.0755 0 19.584 0.0154999 21.183 0.0929999C22.7805 0.1705 23.868 0.42935 24.825 0.81375C25.815 1.20745 26.649 1.74065 27.483 2.6009C28.2457 3.37574 28.8359 4.31301 29.2125 5.3475C29.583 6.33485 29.835 7.46015 29.91 9.1109C29.9805 10.7632 30 11.2886 30 15.5C30 19.7113 29.985 20.2368 29.91 21.8891C29.835 23.5398 29.583 24.6636 29.2125 25.6525C28.837 26.6876 28.2467 27.6251 27.483 28.3991C26.7329 29.187 25.826 29.7968 24.825 30.1862C23.8695 30.5691 22.7805 30.8295 21.183 30.907C19.584 30.9799 19.0755 31 15 31C10.9245 31 10.416 30.9845 8.817 30.907C7.2195 30.8295 6.132 30.5691 5.175 30.1862C4.17349 29.7979 3.26629 29.188 2.517 28.3991C1.75411 27.6244 1.1639 26.6871 0.7875 25.6525C0.4155 24.6651 0.165 23.5398 0.0899999 21.8891C0.0194999 20.2368 0 19.7113 0 15.5C0 11.2886 0.0149999 10.7632 0.0899999 9.1109C0.165 7.4586 0.4155 6.3364 0.7875 5.3475C1.16285 4.31238 1.75321 3.37485 2.517 2.6009C3.26651 1.81231 4.17364 1.20238 5.175 0.81375C6.132 0.42935 7.218 0.1705 8.817 0.0929999C10.416 0.0201499 10.9245 0 15 0Z" fill="#E3C05C"/>
</svg>
