<svg width="24" height="24" viewBox="0 0 24 24" fill="none" xmlns="http://www.w3.org/2000/svg">
<path fill-rule="evenodd" clip-rule="evenodd" d="M11.9203 0.520508C12.1172 0.520508 12.4875 0.539258 12.7359 0.567383C12.9891 0.59082 13.3875 0.656445 13.6172 0.712695C13.8469 0.764258 14.1984 0.867383 14.3906 0.937695C14.5828 1.0127 14.8875 1.13926 15.0703 1.22363C15.2531 1.30801 15.6 1.50488 15.8438 1.66895C16.0875 1.82832 16.4484 2.09551 16.6406 2.25957C16.8328 2.42832 17.1188 2.70957 17.2781 2.8877C17.4328 3.06582 17.6484 3.32832 17.7516 3.46895C17.8594 3.60957 18.0516 3.91426 18.1828 4.14863C18.3141 4.38301 18.5063 4.78145 18.6047 5.03926C18.7031 5.29707 18.8297 5.69551 18.8812 5.92988C18.9375 6.15957 19.0031 6.4877 19.0312 6.65645C19.0547 6.82519 19.0781 7.20957 19.0781 7.51426C19.0781 7.87988 19.0453 8.23144 18.9797 8.56426C18.9281 8.84551 18.7734 9.40801 18.6328 9.82051C18.4969 10.233 18.2437 10.908 18.0656 11.3205C17.8922 11.733 17.4891 12.5861 17.175 13.2189C16.8562 13.8518 16.3641 14.7893 16.0781 15.3049C15.7875 15.8205 15.375 16.5424 15.1594 16.9127C14.9437 17.2783 14.7656 17.5971 14.7656 17.6252C14.7656 17.6533 14.9297 17.6861 15.1266 17.7002C15.3281 17.7143 15.7688 17.7564 16.1016 17.7939C16.4344 17.8314 17.0906 17.9299 17.5547 18.0049C18.0187 18.0846 18.7125 18.2299 19.1016 18.3283C19.4859 18.4268 19.9828 18.5768 20.2031 18.6564C20.4234 18.7361 20.7797 18.8955 21 19.008C21.2203 19.1205 21.5344 19.3361 21.6984 19.4861C21.8625 19.6361 22.0359 19.8377 22.0828 19.9361C22.1344 20.0299 22.1906 20.1986 22.2141 20.3111C22.2422 20.433 22.2422 20.5971 22.2141 20.7424C22.1906 20.8736 22.1016 21.0846 22.0172 21.2111C21.9281 21.3424 21.7266 21.5486 21.5578 21.6752C21.3937 21.7971 21.1172 21.9752 20.9391 22.0596C20.7656 22.1486 20.4703 22.2799 20.2828 22.3549C20.1 22.4299 19.7531 22.5471 19.5234 22.6127C19.2938 22.683 18.8813 22.7861 18.6094 22.8471C18.3375 22.9127 17.7891 23.0158 17.3906 23.0814C16.9922 23.1471 16.3687 23.2314 16.0078 23.2689C15.6469 23.3111 15.0562 23.3627 14.6953 23.3861C14.3344 23.4143 13.5 23.4471 12.8438 23.4658C12.1687 23.4799 11.1187 23.4705 10.4297 23.4424C9.75938 23.4143 8.88281 23.358 8.48438 23.3205C8.08594 23.283 7.45312 23.2033 7.07812 23.1518C6.70312 23.1002 6.1875 23.0158 5.92969 22.9643C5.67188 22.9127 5.20781 22.8049 4.89844 22.7252C4.58906 22.6455 4.11562 22.5002 3.84375 22.3971C3.57187 22.2986 3.20156 22.1346 3.02344 22.0408C2.84063 21.9424 2.57812 21.7783 2.4375 21.6705C2.29688 21.5627 2.12344 21.3986 2.05312 21.3002C1.98281 21.1971 1.89375 21.0377 1.85156 20.9439C1.81406 20.8455 1.78125 20.6439 1.78125 20.4986C1.78125 20.2924 1.81406 20.1611 1.90781 19.9736C1.98281 19.8236 2.15156 19.6174 2.30156 19.4814C2.44687 19.3502 2.75625 19.1439 2.98125 19.0221C3.21094 18.9002 3.57656 18.7361 3.79688 18.6564C4.01719 18.5721 4.50938 18.4268 4.89844 18.3283C5.28281 18.2299 5.98125 18.0846 6.44531 18.0049C6.90938 17.9299 7.56094 17.8314 7.89844 17.7939C8.23125 17.7564 8.67188 17.7143 8.86875 17.7002C9.07031 17.6861 9.23438 17.6533 9.23438 17.6252C9.23438 17.5971 9.05625 17.2783 8.84063 16.9127C8.625 16.5424 8.2125 15.8205 7.92188 15.3049C7.63594 14.7893 7.14375 13.8518 6.825 13.2189C6.51094 12.5861 6.10781 11.733 5.93437 11.3205C5.75625 10.908 5.50312 10.233 5.36719 9.82051C5.22656 9.40801 5.07187 8.84551 5.02031 8.56894C4.95469 8.23145 4.92188 7.87988 4.92188 7.51426C4.92188 7.20957 4.94531 6.82519 4.96875 6.65645C4.99688 6.4877 5.0625 6.15957 5.11875 5.92988C5.17031 5.69551 5.29688 5.29707 5.39531 5.03926C5.49375 4.78145 5.68594 4.38301 5.81719 4.14863C5.94844 3.91426 6.14062 3.60957 6.24844 3.46895C6.35156 3.32832 6.56719 3.06582 6.72187 2.8877C6.88125 2.70957 7.16719 2.42832 7.35938 2.25957C7.55156 2.09551 7.9125 1.82832 8.15625 1.66895C8.4 1.50488 8.74687 1.30801 8.92969 1.22363C9.10781 1.13926 9.41719 1.0127 9.60938 0.937695C9.80156 0.867383 10.1625 0.764258 10.4062 0.708008C10.65 0.651758 11.0109 0.59082 11.2031 0.567383C11.3953 0.543945 11.7188 0.525195 11.9156 0.520508H11.9203ZM10.3641 1.7252C10.1719 1.77676 9.8625 1.87988 9.68438 1.95488C9.50625 2.02988 9.22031 2.16582 9.05156 2.25957C8.88281 2.35332 8.57813 2.55488 8.37188 2.70488C8.16563 2.85957 7.84219 3.14082 7.65469 3.33301C7.46719 3.5252 7.19531 3.84863 7.04531 4.05488C6.9 4.26113 6.68437 4.60801 6.57187 4.82832C6.45937 5.04863 6.30469 5.39551 6.23438 5.60176C6.16406 5.80801 6.07031 6.13613 6.02813 6.32832C5.98594 6.52051 5.93906 6.96582 5.925 7.3127C5.90625 7.72519 5.92031 8.05801 5.95781 8.27363C5.99062 8.45176 6.08437 8.84551 6.17344 9.14082C6.25781 9.43613 6.40312 9.87207 6.49219 10.1018C6.58125 10.3314 6.75469 10.7533 6.87188 11.0393C6.99375 11.3252 7.30781 11.9955 7.575 12.5393C7.84219 13.083 8.34844 14.0393 8.7 14.6721C9.05625 15.3049 9.63281 16.308 9.98906 16.8986C10.3406 17.4893 10.8609 18.333 11.1375 18.7736C11.4141 19.2143 11.7188 19.6924 11.8125 19.8377C11.9062 19.9877 11.9906 20.1096 12.0047 20.1096C12.0188 20.1096 12.1031 19.9877 12.1969 19.8377C12.2906 19.6924 12.6375 19.1393 12.975 18.6096C13.3078 18.0799 13.8 17.2783 14.0672 16.8283C14.3344 16.3783 14.8453 15.4924 15.2062 14.8596C15.5625 14.2268 16.1063 13.2049 16.4109 12.5861C16.7156 11.9674 17.0859 11.1752 17.2313 10.8283C17.3766 10.4814 17.5875 9.92363 17.7 9.58613C17.8125 9.24863 17.9531 8.7752 18.0047 8.53144C18.0797 8.2127 18.1078 7.92676 18.1031 7.52363C18.1031 7.13926 18.0703 6.80176 18.0047 6.46895C17.9484 6.19707 17.85 5.81738 17.7844 5.6252C17.7188 5.43301 17.5781 5.10488 17.475 4.89863C17.3719 4.69238 17.1984 4.3877 17.0859 4.21895C16.9781 4.0502 16.7578 3.76426 16.5984 3.58613C16.4391 3.40801 16.1766 3.14551 16.0219 3.00957C15.8625 2.86895 15.5625 2.64395 15.3563 2.50801C15.15 2.37207 14.8547 2.19863 14.7 2.11895C14.5453 2.04395 14.2266 1.91738 13.9969 1.8377C13.7672 1.75801 13.4156 1.65957 13.2234 1.61738C13.0172 1.57051 12.5766 1.53301 12.1453 1.52363C11.6672 1.50957 11.2969 1.52363 11.0672 1.56582C10.875 1.59863 10.5563 1.67363 10.3641 1.7252ZM7.50469 18.8205C7.18125 18.8627 6.59063 18.9611 6.19219 19.0361C5.79375 19.1158 5.24531 19.2424 4.97344 19.3174C4.70156 19.3971 4.27969 19.533 4.03594 19.6221C3.79219 19.7158 3.45469 19.8658 3.28594 19.9643C3.11719 20.0627 2.93437 20.2033 2.87344 20.2783C2.81719 20.3533 2.76562 20.4658 2.76562 20.5314C2.76562 20.6111 2.83125 20.7096 2.96719 20.8314C3.07969 20.9346 3.37969 21.1174 3.6375 21.2393C3.89531 21.3611 4.35938 21.5393 4.66875 21.633C4.97812 21.7268 5.59219 21.8721 6.02813 21.9611C6.46406 22.0502 7.12969 22.1627 7.50469 22.2143C7.87969 22.2658 8.42813 22.3314 8.72344 22.3596C9.01875 22.383 9.63281 22.4299 10.0828 22.4533C10.5328 22.4768 11.4 22.5002 12.0047 22.5002C12.6094 22.5002 13.4766 22.4768 13.9266 22.4533C14.3766 22.4299 14.9906 22.383 15.2859 22.3596C15.5813 22.3314 16.1391 22.2658 16.5281 22.2143C16.9125 22.1627 17.4938 22.0689 17.8172 22.008C18.1406 21.9424 18.6797 21.8158 19.0125 21.7268C19.3453 21.633 19.8141 21.483 20.0438 21.3893C20.2734 21.3002 20.5688 21.1643 20.7 21.0939C20.8266 21.0189 21.0047 20.8877 21.0891 20.8033C21.1734 20.7189 21.2437 20.6158 21.2484 20.5783C21.2484 20.5408 21.2437 20.4752 21.2391 20.4377C21.2344 20.4002 21.1969 20.3252 21.1547 20.2783C21.1078 20.2314 20.9484 20.1049 20.7938 20.0064C20.6391 19.908 20.3016 19.7439 20.0438 19.6455C19.7859 19.5471 19.3453 19.4018 19.0594 19.3221C18.7734 19.2424 18.2672 19.1252 17.9344 19.0596C17.6016 18.9939 17.0391 18.8955 16.6922 18.8486C16.3453 18.7971 15.6844 18.7221 15.225 18.6846C14.7703 18.6424 14.3391 18.6096 14.2641 18.6096C14.1516 18.6096 14.0813 18.6986 13.5516 19.533C13.2328 20.0439 12.8297 20.658 12.6609 20.9018C12.4922 21.1455 12.3047 21.3752 12.2391 21.4174C12.1734 21.4549 12.0563 21.483 11.9813 21.4783C11.9016 21.4736 11.7937 21.4361 11.7328 21.3986C11.6766 21.3611 11.4141 20.9955 11.1469 20.5924C10.8797 20.1846 10.4859 19.5705 10.2656 19.2283L9.87188 18.6096C9.43594 18.6189 9.0375 18.6471 8.7 18.6799C8.3625 18.7127 7.82813 18.7736 7.50469 18.8205ZM11.9813 4.55176C12.2391 4.55176 12.5438 4.57051 12.6609 4.59395C12.7781 4.62207 13.0078 4.69707 13.1766 4.76738C13.3453 4.8377 13.5984 4.96895 13.7391 5.0627C13.8797 5.16113 14.1187 5.37207 14.2734 5.53613C14.4234 5.7002 14.6156 5.9627 14.7 6.11738C14.7891 6.27207 14.9062 6.55801 14.9672 6.7502C15.0562 7.03613 15.075 7.20019 15.0703 7.64082C15.0703 8.08613 15.0469 8.24551 14.9437 8.55488C14.8781 8.76582 14.7234 9.08457 14.5922 9.28144C14.4656 9.47363 14.2312 9.75019 14.0766 9.89082C13.9219 10.0314 13.65 10.2283 13.4719 10.3221C13.2984 10.4158 12.9844 10.5377 12.7781 10.5939C12.5438 10.6549 12.2531 10.6877 12.0047 10.6877C11.7563 10.6877 11.4656 10.6549 11.2313 10.5939C11.025 10.5377 10.7109 10.4158 10.5375 10.3221C10.3594 10.2283 10.0875 10.0314 9.93281 9.89082C9.77812 9.75019 9.54375 9.47363 9.41719 9.28144C9.28594 9.08457 9.13125 8.76582 9.06562 8.55488C8.9625 8.24551 8.93906 8.08613 8.93906 7.64082C8.93437 7.20019 8.95312 7.03613 9.04219 6.7502C9.10312 6.55801 9.22031 6.27207 9.30938 6.11738C9.39375 5.9627 9.58594 5.7002 9.73594 5.53613C9.89062 5.37207 10.1297 5.16113 10.2703 5.0627C10.4109 4.96895 10.6453 4.84238 10.7859 4.78145C10.9266 4.72051 11.1469 4.64551 11.2781 4.6127C11.4047 4.57988 11.7234 4.55176 11.9813 4.55176ZM11.2781 5.63926C11.175 5.67676 10.9969 5.76582 10.8797 5.83613C10.7625 5.91113 10.575 6.06582 10.4625 6.18301C10.35 6.3002 10.1953 6.5252 10.1203 6.67988C10.0453 6.83457 9.96094 7.11113 9.93281 7.28926C9.89531 7.53301 9.89531 7.70176 9.93281 7.94551C9.96094 8.12832 10.05 8.4002 10.125 8.55488C10.2 8.70957 10.3734 8.94863 10.5141 9.08926C10.6734 9.25332 10.8844 9.40332 11.1141 9.51113C11.4563 9.67519 11.4797 9.67988 12.0047 9.67988C12.5297 9.67988 12.5531 9.67519 12.8953 9.51113C13.125 9.40332 13.3359 9.25332 13.4953 9.08926C13.6359 8.94863 13.8094 8.70957 13.8844 8.55488C13.9594 8.4002 14.0484 8.12832 14.0766 7.94551C14.1141 7.70176 14.1141 7.53301 14.0766 7.28926C14.0484 7.11113 13.9641 6.83457 13.8891 6.67988C13.8141 6.5252 13.6594 6.3002 13.5469 6.18301C13.4344 6.06582 13.2469 5.91113 13.1297 5.83613C13.0125 5.76582 12.8109 5.66738 12.6844 5.6252C12.5531 5.58301 12.3328 5.53613 12.1922 5.52207C12.0516 5.50801 11.8266 5.5127 11.7 5.53145C11.5688 5.55488 11.3813 5.60176 11.2781 5.63926Z" fill="#E3C05C"/>
</svg>
