<svg width="24" height="24" viewBox="0 0 24 24" fill="none" xmlns="http://www.w3.org/2000/svg">
<path fill-rule="evenodd" clip-rule="evenodd" d="M11.9203 0.520264C12.1172 0.520264 12.4875 0.539014 12.7359 0.567139C12.9891 0.590576 13.3875 0.656201 13.6172 0.712451C13.8469 0.764014 14.1984 0.867139 14.3906 0.937451C14.5828 1.01245 14.8875 1.13901 15.0703 1.22339C15.2531 1.30776 15.6 1.50464 15.8438 1.6687C16.0875 1.82808 16.4484 2.09526 16.6406 2.25933C16.8328 2.42808 17.1188 2.70933 17.2781 2.88745C17.4328 3.06558 17.6484 3.32808 17.7516 3.4687C17.8594 3.60933 18.0516 3.91401 18.1828 4.14839C18.3141 4.38276 18.5063 4.7812 18.6047 5.03901C18.7031 5.29683 18.8297 5.69526 18.8812 5.92964C18.9375 6.15933 19.0031 6.48745 19.0312 6.6562C19.0547 6.82495 19.0781 7.20933 19.0781 7.51401C19.0781 7.87964 19.0453 8.2312 18.9797 8.56401C18.9281 8.84526 18.7734 9.40776 18.6328 9.82026C18.4969 10.2328 18.2437 10.9078 18.0656 11.3203C17.8922 11.7328 17.4891 12.5859 17.175 13.2187C16.8562 13.8515 16.3641 14.789 16.0781 15.3046C15.7875 15.8203 15.375 16.5421 15.1594 16.9125C14.9437 17.2781 14.7656 17.5968 14.7656 17.625C14.7656 17.6531 14.9297 17.6859 15.1266 17.7C15.3281 17.714 15.7688 17.7562 16.1016 17.7937C16.4344 17.8312 17.0906 17.9296 17.5547 18.0046C18.0187 18.0843 18.7125 18.2296 19.1016 18.3281C19.4859 18.4265 19.9828 18.5765 20.2031 18.6562C20.4234 18.7359 20.7797 18.8953 21 19.0078C21.2203 19.1203 21.5344 19.3359 21.6984 19.4859C21.8625 19.6359 22.0359 19.8375 22.0828 19.9359C22.1344 20.0296 22.1906 20.1984 22.2141 20.3109C22.2422 20.4328 22.2422 20.5968 22.2141 20.7421C22.1906 20.8734 22.1016 21.0843 22.0172 21.2109C21.9281 21.3421 21.7266 21.5484 21.5578 21.6749C21.3937 21.7968 21.1172 21.975 20.9391 22.0593C20.7656 22.1484 20.4703 22.2796 20.2828 22.3546C20.1 22.4296 19.7531 22.5468 19.5234 22.6124C19.2938 22.6828 18.8813 22.7859 18.6094 22.8468C18.3375 22.9125 17.7891 23.0156 17.3906 23.0812C16.9922 23.1468 16.3687 23.2312 16.0078 23.2687C15.6469 23.3109 15.0562 23.3624 14.6953 23.3859C14.3344 23.414 13.5 23.4468 12.8438 23.4656C12.1687 23.4796 11.1187 23.4703 10.4297 23.4421C9.75938 23.414 8.88281 23.3578 8.48438 23.3203C8.08594 23.2828 7.45312 23.2031 7.07812 23.1515C6.70312 23.1 6.1875 23.0156 5.92969 22.964C5.67188 22.9125 5.20781 22.8046 4.89844 22.725C4.58906 22.6453 4.11562 22.5 3.84375 22.3968C3.57187 22.2984 3.20156 22.1343 3.02344 22.0406C2.84063 21.9421 2.57812 21.7781 2.4375 21.6703C2.29688 21.5625 2.12344 21.3984 2.05312 21.2999C1.98281 21.1968 1.89375 21.0375 1.85156 20.9437C1.81406 20.8453 1.78125 20.6437 1.78125 20.4984C1.78125 20.2921 1.81406 20.1609 1.90781 19.9734C1.98281 19.8234 2.15156 19.6171 2.30156 19.4812C2.44687 19.35 2.75625 19.1437 2.98125 19.0218C3.21094 18.9 3.57656 18.7359 3.79688 18.6562C4.01719 18.5718 4.50938 18.4265 4.89844 18.3281C5.28281 18.2296 5.98125 18.0843 6.44531 18.0046C6.90938 17.9296 7.56094 17.8312 7.89844 17.7937C8.23125 17.7562 8.67188 17.714 8.86875 17.7C9.07031 17.6859 9.23438 17.6531 9.23438 17.625C9.23438 17.5968 9.05625 17.2781 8.84063 16.9125C8.625 16.5421 8.2125 15.8203 7.92188 15.3046C7.63594 14.789 7.14375 13.8515 6.825 13.2187C6.51094 12.5859 6.10781 11.7328 5.93437 11.3203C5.75625 10.9078 5.50312 10.2328 5.36719 9.82026C5.22656 9.40776 5.07187 8.84526 5.02031 8.5687C4.95469 8.2312 4.92188 7.87964 4.92188 7.51401C4.92188 7.20933 4.94531 6.82495 4.96875 6.6562C4.99688 6.48745 5.0625 6.15933 5.11875 5.92964C5.17031 5.69526 5.29688 5.29683 5.39531 5.03901C5.49375 4.7812 5.68594 4.38276 5.81719 4.14839C5.94844 3.91401 6.14062 3.60933 6.24844 3.4687C6.35156 3.32808 6.56719 3.06558 6.72187 2.88745C6.88125 2.70933 7.16719 2.42808 7.35938 2.25933C7.55156 2.09526 7.9125 1.82808 8.15625 1.6687C8.4 1.50464 8.74687 1.30776 8.92969 1.22339C9.10781 1.13901 9.41719 1.01245 9.60938 0.937451C9.80156 0.867139 10.1625 0.764014 10.4062 0.707764C10.65 0.651514 11.0109 0.590576 11.2031 0.567139C11.3953 0.543701 11.7188 0.524951 11.9156 0.520264H11.9203ZM10.3641 1.72495C10.1719 1.77651 9.8625 1.87964 9.68438 1.95464C9.50625 2.02964 9.22031 2.16558 9.05156 2.25933C8.88281 2.35308 8.57813 2.55464 8.37188 2.70464C8.16563 2.85933 7.84219 3.14058 7.65469 3.33276C7.46719 3.52495 7.19531 3.84839 7.04531 4.05464C6.9 4.26089 6.68437 4.60776 6.57187 4.82808C6.45937 5.04839 6.30469 5.39526 6.23438 5.60151C6.16406 5.80776 6.07031 6.13589 6.02813 6.32808C5.98594 6.52026 5.93906 6.96558 5.925 7.31245C5.90625 7.72495 5.92031 8.05776 5.95781 8.27339C5.99062 8.45151 6.08437 8.84526 6.17344 9.14058C6.25781 9.43589 6.40312 9.87183 6.49219 10.1015C6.58125 10.3312 6.75469 10.7531 6.87188 11.039C6.99375 11.325 7.30781 11.9953 7.575 12.539C7.84219 13.0828 8.34844 14.039 8.7 14.6718C9.05625 15.3046 9.63281 16.3078 9.98906 16.8984C10.3406 17.489 10.8609 18.3328 11.1375 18.7734C11.4141 19.214 11.7188 19.6921 11.8125 19.8375C11.9062 19.9875 11.9906 20.1093 12.0047 20.1093C12.0188 20.1093 12.1031 19.9875 12.1969 19.8375C12.2906 19.6921 12.6375 19.139 12.975 18.6093C13.3078 18.0796 13.8 17.2781 14.0672 16.8281C14.3344 16.3781 14.8453 15.4921 15.2062 14.8593C15.5625 14.2265 16.1063 13.2046 16.4109 12.5859C16.7156 11.9671 17.0859 11.175 17.2313 10.8281C17.3766 10.4812 17.5875 9.92339 17.7 9.58589C17.8125 9.24839 17.9531 8.77495 18.0047 8.5312C18.0797 8.21245 18.1078 7.92651 18.1031 7.52339C18.1031 7.13901 18.0703 6.80151 18.0047 6.4687C17.9484 6.19683 17.85 5.81714 17.7844 5.62495C17.7188 5.43276 17.5781 5.10464 17.475 4.89839C17.3719 4.69214 17.1984 4.38745 17.0859 4.2187C16.9781 4.04995 16.7578 3.76401 16.5984 3.58589C16.4391 3.40776 16.1766 3.14526 16.0219 3.00933C15.8625 2.8687 15.5625 2.6437 15.3563 2.50776C15.15 2.37183 14.8547 2.19839 14.7 2.1187C14.5453 2.0437 14.2266 1.91714 13.9969 1.83745C13.7672 1.75776 13.4156 1.65933 13.2234 1.61714C13.0172 1.57026 12.5766 1.53276 12.1453 1.52339C11.6672 1.50933 11.2969 1.52339 11.0672 1.56558C10.875 1.59839 10.5563 1.67339 10.3641 1.72495ZM7.50469 18.8203C7.18125 18.8625 6.59063 18.9609 6.19219 19.0359C5.79375 19.1156 5.24531 19.2421 4.97344 19.3171C4.70156 19.3968 4.27969 19.5328 4.03594 19.6218C3.79219 19.7156 3.45469 19.8656 3.28594 19.964C3.11719 20.0625 2.93437 20.2031 2.87344 20.2781C2.81719 20.3531 2.76562 20.4656 2.76562 20.5312C2.76562 20.6109 2.83125 20.7093 2.96719 20.8312C3.07969 20.9343 3.37969 21.1171 3.6375 21.239C3.89531 21.3609 4.35938 21.539 4.66875 21.6328C4.97812 21.7265 5.59219 21.8718 6.02813 21.9609C6.46406 22.05 7.12969 22.1625 7.50469 22.214C7.87969 22.2656 8.42813 22.3312 8.72344 22.3593C9.01875 22.3828 9.63281 22.4296 10.0828 22.4531C10.5328 22.4765 11.4 22.5 12.0047 22.5C12.6094 22.5 13.4766 22.4765 13.9266 22.4531C14.3766 22.4296 14.9906 22.3828 15.2859 22.3593C15.5813 22.3312 16.1391 22.2656 16.5281 22.214C16.9125 22.1625 17.4938 22.0687 17.8172 22.0078C18.1406 21.9421 18.6797 21.8156 19.0125 21.7265C19.3453 21.6328 19.8141 21.4828 20.0438 21.389C20.2734 21.2999 20.5688 21.164 20.7 21.0937C20.8266 21.0187 21.0047 20.8875 21.0891 20.8031C21.1734 20.7187 21.2437 20.6156 21.2484 20.5781C21.2484 20.5406 21.2437 20.475 21.2391 20.4375C21.2344 20.4 21.1969 20.325 21.1547 20.2781C21.1078 20.2312 20.9484 20.1046 20.7938 20.0062C20.6391 19.9078 20.3016 19.7437 20.0438 19.6453C19.7859 19.5468 19.3453 19.4015 19.0594 19.3218C18.7734 19.2421 18.2672 19.125 17.9344 19.0593C17.6016 18.9937 17.0391 18.8953 16.6922 18.8484C16.3453 18.7968 15.6844 18.7218 15.225 18.6843C14.7703 18.6421 14.3391 18.6093 14.2641 18.6093C14.1516 18.6093 14.0813 18.6984 13.5516 19.5328C13.2328 20.0437 12.8297 20.6578 12.6609 20.9015C12.4922 21.1453 12.3047 21.375 12.2391 21.4171C12.1734 21.4546 12.0563 21.4828 11.9813 21.4781C11.9016 21.4734 11.7937 21.4359 11.7328 21.3984C11.6766 21.3609 11.4141 20.9953 11.1469 20.5921C10.8797 20.1843 10.4859 19.5703 10.2656 19.2281L9.87188 18.6093C9.43594 18.6187 9.0375 18.6468 8.7 18.6796C8.3625 18.7125 7.82813 18.7734 7.50469 18.8203ZM11.9813 4.55151C12.2391 4.55151 12.5438 4.57026 12.6609 4.5937C12.7781 4.62183 13.0078 4.69683 13.1766 4.76714C13.3453 4.83745 13.5984 4.9687 13.7391 5.06245C13.8797 5.16089 14.1187 5.37183 14.2734 5.53589C14.4234 5.69995 14.6156 5.96245 14.7 6.11714C14.7891 6.27183 14.9062 6.55776 14.9672 6.74995C15.0562 7.03589 15.075 7.19995 15.0703 7.64058C15.0703 8.08589 15.0469 8.24526 14.9437 8.55464C14.8781 8.76558 14.7234 9.08433 14.5922 9.2812C14.4656 9.47339 14.2312 9.74995 14.0766 9.89058C13.9219 10.0312 13.65 10.2281 13.4719 10.3218C13.2984 10.4156 12.9844 10.5375 12.7781 10.5937C12.5438 10.6546 12.2531 10.6875 12.0047 10.6875C11.7563 10.6875 11.4656 10.6546 11.2313 10.5937C11.025 10.5375 10.7109 10.4156 10.5375 10.3218C10.3594 10.2281 10.0875 10.0312 9.93281 9.89058C9.77812 9.74995 9.54375 9.47339 9.41719 9.2812C9.28594 9.08433 9.13125 8.76558 9.06562 8.55464C8.9625 8.24526 8.93906 8.08589 8.93906 7.64058C8.93437 7.19995 8.95312 7.03589 9.04219 6.74995C9.10312 6.55776 9.22031 6.27183 9.30938 6.11714C9.39375 5.96245 9.58594 5.69995 9.73594 5.53589C9.89062 5.37183 10.1297 5.16089 10.2703 5.06245C10.4109 4.9687 10.6453 4.84214 10.7859 4.7812C10.9266 4.72026 11.1469 4.64526 11.2781 4.61245C11.4047 4.57964 11.7234 4.55151 11.9813 4.55151ZM11.2781 5.63901C11.175 5.67651 10.9969 5.76558 10.8797 5.83589C10.7625 5.91089 10.575 6.06558 10.4625 6.18276C10.35 6.29995 10.1953 6.52495 10.1203 6.67964C10.0453 6.83433 9.96094 7.11089 9.93281 7.28901C9.89531 7.53276 9.89531 7.70151 9.93281 7.94526C9.96094 8.12808 10.05 8.39995 10.125 8.55464C10.2 8.70933 10.3734 8.94839 10.5141 9.08901C10.6734 9.25308 10.8844 9.40308 11.1141 9.51089C11.4563 9.67495 11.4797 9.67964 12.0047 9.67964C12.5297 9.67964 12.5531 9.67495 12.8953 9.51089C13.125 9.40308 13.3359 9.25308 13.4953 9.08901C13.6359 8.94839 13.8094 8.70933 13.8844 8.55464C13.9594 8.39995 14.0484 8.12808 14.0766 7.94526C14.1141 7.70151 14.1141 7.53276 14.0766 7.28901C14.0484 7.11089 13.9641 6.83433 13.8891 6.67964C13.8141 6.52495 13.6594 6.29995 13.5469 6.18276C13.4344 6.06558 13.2469 5.91089 13.1297 5.83589C13.0125 5.76558 12.8109 5.66714 12.6844 5.62495C12.5531 5.58276 12.3328 5.53589 12.1922 5.52183C12.0516 5.50776 11.8266 5.51245 11.7 5.5312C11.5688 5.55464 11.3813 5.60151 11.2781 5.63901Z" fill="black"/>
</svg>
