<svg width="24" height="24" viewBox="0 0 24 24" fill="none" xmlns="http://www.w3.org/2000/svg">
<path fill-rule="evenodd" clip-rule="evenodd" d="M13.2422 0C13.3453 0 13.6219 0.0421875 13.8516 0.0984375C14.0812 0.15 14.5031 0.2625 14.7891 0.342188C15.075 0.421875 15.5344 0.576563 15.8203 0.684375C16.1062 0.792188 16.5047 0.960938 16.7109 1.05938C16.9172 1.15313 17.2781 1.33594 17.5078 1.46719C17.7375 1.59844 18.1219 1.82812 18.3516 1.98281C18.5812 2.1375 19.0172 2.45625 19.3125 2.69531C19.6078 2.93438 20.1 3.37969 20.4 3.68437C20.7047 3.99375 21.1078 4.44375 21.3047 4.6875C21.4969 4.93125 21.8156 5.36719 22.0031 5.64844C22.1953 5.92969 22.5 6.45 22.6828 6.79688C22.8609 7.14375 23.1047 7.67344 23.2266 7.96875C23.3437 8.26406 23.5125 8.75156 23.6016 9.04688C23.6906 9.34219 23.8172 9.83906 23.8781 10.1484C23.9719 10.5891 23.9859 10.7484 23.9484 10.875C23.925 10.9641 23.8453 11.1 23.775 11.1703C23.7047 11.2406 23.5734 11.3203 23.4844 11.3438C23.3953 11.3672 23.2547 11.3719 23.1797 11.3578C23.1047 11.3438 22.9687 11.2828 22.8844 11.2219C22.8047 11.1609 22.7109 11.0531 22.6828 10.9828C22.6594 10.9078 22.5937 10.65 22.5422 10.4062C22.4859 10.1625 22.3922 9.76875 22.3265 9.53906C22.2609 9.30937 22.1156 8.87344 21.9984 8.57812C21.8859 8.28281 21.6562 7.77656 21.4875 7.45312C21.3187 7.12969 21.0609 6.68906 20.9203 6.46875C20.775 6.24844 20.5219 5.89219 20.3531 5.67188C20.1844 5.45156 19.8141 5.03437 19.5281 4.73906C19.2422 4.44844 18.7969 4.03594 18.5391 3.825C18.2812 3.60938 17.9016 3.32344 17.6953 3.1875C17.489 3.04688 17.1422 2.83125 16.9219 2.70469C16.7016 2.57812 16.3031 2.37656 16.0312 2.25C15.7594 2.12812 15.3937 1.97344 15.2109 1.90312C15.0281 1.8375 14.7375 1.73906 14.5547 1.6875C14.3719 1.63125 13.9641 1.53281 13.6406 1.4625C13.3172 1.39219 12.9984 1.29844 12.9281 1.25156C12.8531 1.20938 12.7547 1.10156 12.7031 1.01719C12.6516 0.9375 12.6094 0.7875 12.6094 0.689062C12.6094 0.595312 12.6422 0.45 12.6797 0.375C12.7172 0.295312 12.8203 0.182812 12.9047 0.117188C13.0078 0.0375 13.1156 0 13.2422 0ZM4.5703 1.40625C4.79061 1.40625 5.05311 1.43906 5.20311 1.48125C5.34374 1.52344 5.57811 1.62187 5.71874 1.70156C5.90624 1.80469 6.4453 2.31094 7.71561 3.58125C9.28124 5.14688 9.47343 5.35313 9.61874 5.64844C9.7078 5.82656 9.81093 6.10313 9.84374 6.25781C9.87655 6.41719 9.89061 6.67031 9.87655 6.84375C9.86249 7.0125 9.80624 7.275 9.75468 7.42969C9.69843 7.58437 9.57655 7.82812 9.4828 7.96875C9.38436 8.10938 8.90155 8.63906 7.50468 10.0547L7.6828 10.4062C7.78593 10.5984 7.99686 10.9594 8.15624 11.2031C8.3203 11.4469 8.5453 11.775 8.66249 11.9297C8.78436 12.0844 9.05624 12.4219 9.27655 12.6797C9.49686 12.9375 9.95155 13.425 10.2891 13.7578C10.6219 14.0906 11.1281 14.5594 11.4047 14.7891C11.6859 15.0188 12.1594 15.3844 12.4594 15.5953C12.7594 15.8063 13.2141 16.0828 13.9219 16.4531L14.8969 15.5016C15.4312 14.9766 15.9609 14.4938 16.0781 14.4234C16.1953 14.3578 16.3828 14.2688 16.5 14.2266C16.6172 14.1844 16.8375 14.1328 16.9922 14.1094C17.1562 14.0859 17.4 14.0859 17.5781 14.1141C17.7516 14.1422 18.0375 14.2313 18.2344 14.3297C18.5672 14.4844 18.6844 14.5969 20.325 16.2375C22.0219 17.9344 22.0687 17.9859 22.2609 18.375C22.3828 18.6281 22.4672 18.8859 22.4953 19.0781C22.5234 19.2656 22.5234 19.5094 22.4953 19.7109C22.4672 19.9453 22.3969 20.1562 22.2562 20.4375C22.0734 20.7984 21.9609 20.9297 21.0234 21.8906C20.4562 22.4719 19.9172 23.0156 19.8281 23.0906C19.739 23.1703 19.5609 23.3062 19.4297 23.3906C19.3031 23.4797 19.0781 23.6016 18.9375 23.6625C18.7969 23.7234 18.4828 23.8266 18.2484 23.8875C17.9109 23.9719 17.6906 24 17.2828 24C16.9328 24 16.5391 23.9609 16.1016 23.8828C15.7406 23.8219 15.2531 23.7141 15.0234 23.6484C14.7937 23.5828 14.3906 23.4516 14.1328 23.3578C13.875 23.2641 13.3875 23.0672 13.0547 22.9219C12.7219 22.7719 12.1266 22.4812 11.7422 22.2797C11.3578 22.0734 10.8375 21.7828 10.5937 21.6328C10.35 21.4828 9.92811 21.2156 9.65624 21.0328C9.38436 20.85 8.93436 20.5312 8.64843 20.3203C8.36249 20.1094 7.87968 19.725 7.5703 19.4672C7.26093 19.2094 6.71249 18.7172 6.35624 18.3703C5.9953 18.0234 5.45624 17.4656 5.16092 17.1328C4.86093 16.8 4.44843 16.3125 4.23749 16.0547C4.03124 15.7969 3.73593 15.4172 3.58124 15.2109C3.42186 15.0047 3.1078 14.55 2.87343 14.2031C2.63905 13.8562 2.34843 13.4016 2.22186 13.1953C2.09999 12.9891 1.80468 12.4406 1.5703 11.9766C1.33124 11.5125 1.01249 10.8047 0.8578 10.4062C0.698425 10.0078 0.5203 9.51094 0.454675 9.30469C0.38905 9.09844 0.285925 8.68594 0.215613 8.39062C0.149988 8.09531 0.0749878 7.60781 0.0515503 7.3125C0.0234253 6.97031 0.0234253 6.59062 0.0515503 6.26719C0.0749878 5.97187 0.140613 5.61562 0.210925 5.4C0.27655 5.20312 0.412488 4.88437 0.515613 4.69687C0.65155 4.45781 0.909363 4.14375 1.42499 3.59531C1.81874 3.17812 2.35311 2.63438 2.60624 2.39062C2.85936 2.14687 3.20624 1.86094 3.37499 1.75781C3.54374 1.65937 3.79686 1.5375 3.93749 1.49531C4.08749 1.44375 4.34999 1.41094 4.5703 1.40625ZM2.8828 4.0875C2.0578 4.92188 1.77186 5.24062 1.67811 5.4375C1.6078 5.57812 1.51874 5.82188 1.47655 5.97656C1.43436 6.15469 1.40624 6.46406 1.40624 6.82031C1.40624 7.24219 1.43905 7.52812 1.52811 7.96875C1.59843 8.29219 1.7578 8.85938 1.88436 9.23438C2.01093 9.60938 2.24999 10.2094 2.40936 10.5703C2.56874 10.9312 2.84999 11.4984 3.0328 11.8359C3.21561 12.1687 3.52499 12.6891 3.71249 12.9844C3.89999 13.2797 4.21405 13.7437 4.40624 14.0156C4.59843 14.2875 4.95936 14.7609 5.20311 15.0703C5.45155 15.3797 5.90624 15.9187 6.21561 16.2656C6.52499 16.6125 7.06405 17.1656 7.41093 17.4891C7.7578 17.8172 8.24061 18.2484 8.48436 18.4547C8.72811 18.6562 9.1828 19.0172 9.49218 19.2469C9.80155 19.4813 10.275 19.8141 10.5469 19.9922C10.8187 20.1656 11.2687 20.4469 11.5547 20.6156C11.8406 20.7797 12.4172 21.0938 12.8437 21.3047C13.2703 21.5203 13.9125 21.8109 14.2734 21.9516C14.6344 22.0922 15.1312 22.2656 15.375 22.3312C15.6187 22.3969 15.9891 22.4813 16.1953 22.5234C16.4016 22.5609 16.7812 22.6078 17.0391 22.6219C17.3812 22.6406 17.6016 22.6313 17.8594 22.575C18.0515 22.5328 18.3187 22.4484 18.4453 22.3828C18.5766 22.3219 18.7875 22.1766 18.9141 22.0687C19.0453 21.9562 19.5516 21.4547 20.0437 20.9531C20.5922 20.3953 20.9812 19.9547 21.0469 19.8281C21.1078 19.7016 21.1547 19.5328 21.1547 19.4062C21.1547 19.2797 21.1078 19.1109 21.0469 18.9844C20.9766 18.8438 20.4469 18.2766 19.4344 17.2594C18.6094 16.425 17.8453 15.6891 17.7469 15.6188C17.6156 15.5297 17.4891 15.4875 17.3016 15.4734C17.1141 15.4641 16.9922 15.4828 16.875 15.5391C16.7859 15.5859 16.2375 16.0922 15.6562 16.6641C15.075 17.2359 14.5266 17.7469 14.4375 17.7938C14.3344 17.8453 14.1703 17.8781 13.9875 17.8781C13.7203 17.8828 13.65 17.8594 13.1203 17.5828C12.8015 17.4188 12.2625 17.1047 11.9297 16.8844C11.5922 16.6594 11.0578 16.2703 10.7344 16.0125C10.4109 15.7547 9.79686 15.1922 9.3703 14.7656C8.94374 14.3391 8.41405 13.7812 8.19374 13.5234C7.97811 13.2656 7.63124 12.8344 7.43436 12.5625C7.2328 12.2906 6.93749 11.85 6.77343 11.5781C6.61405 11.3062 6.40311 10.9172 6.30468 10.7109C6.17343 10.4297 6.12186 10.2563 6.1078 10.0078C6.08436 9.75469 6.09843 9.64219 6.16405 9.51562C6.20624 9.42656 6.71249 8.8875 7.28905 8.32031C8.01093 7.60313 8.36249 7.22344 8.42811 7.07812C8.48436 6.96094 8.53124 6.79219 8.53124 6.70312C8.53124 6.61406 8.48436 6.44531 8.4328 6.32812C8.36249 6.17344 7.92655 5.70469 6.75936 4.53281C5.66718 3.44062 5.11874 2.925 4.9828 2.85938C4.8703 2.80781 4.69217 2.76562 4.57968 2.76562C4.46718 2.77031 4.29374 2.81719 4.17186 2.88281C4.04061 2.94844 3.56249 3.39375 2.8828 4.0875ZM13.0781 4.35938C13.1672 4.35938 13.4531 4.41094 13.7109 4.47188C13.9687 4.5375 14.3391 4.64531 14.5312 4.71562C14.7234 4.78125 15.075 4.93125 15.3047 5.03906C15.5391 5.15156 15.9469 5.38594 16.2187 5.56875C16.4906 5.75156 16.8797 6.05156 17.0859 6.23438C17.2922 6.42188 17.6062 6.73594 17.7797 6.93281C17.9578 7.12969 18.2344 7.49062 18.3984 7.73438C18.5625 7.97813 18.8015 8.39062 18.9281 8.64844C19.0547 8.90625 19.2375 9.3375 19.3265 9.60938C19.4156 9.88125 19.5281 10.2797 19.5703 10.5C19.6125 10.7203 19.6359 10.9688 19.6219 11.0484C19.6078 11.1328 19.5422 11.2641 19.4766 11.3438C19.4109 11.4187 19.2797 11.5078 19.1859 11.5359C19.0875 11.5641 18.9328 11.5781 18.8437 11.5641C18.7547 11.5453 18.6234 11.4937 18.5531 11.4375C18.4781 11.3859 18.3937 11.2875 18.3562 11.2125C18.3234 11.1422 18.2578 10.9172 18.2109 10.7109C18.1641 10.5047 18.0656 10.1578 17.9906 9.9375C17.9109 9.71719 17.7797 9.40312 17.6953 9.23438C17.6109 9.06563 17.4094 8.72812 17.2453 8.48438C17.0812 8.24063 16.7672 7.85156 16.5469 7.62188C16.3266 7.39219 15.9703 7.07344 15.75 6.90937C15.5297 6.74531 15.15 6.50625 14.9062 6.37969C14.6625 6.25313 14.325 6.09375 14.1562 6.03281C13.9875 5.97187 13.6219 5.85938 13.3359 5.79375C13.0547 5.72344 12.7734 5.63438 12.7172 5.59688C12.6562 5.55938 12.5672 5.46094 12.5156 5.37656C12.4641 5.29219 12.4219 5.14219 12.4219 5.03906C12.4219 4.93594 12.4641 4.78594 12.5156 4.69687C12.5672 4.61719 12.6797 4.50469 12.764 4.45312C12.8437 4.40156 12.9891 4.35938 13.0781 4.35938Z" fill="#E3C05C"/>
</svg>
