<svg width="24" height="24" viewBox="0 0 24 24" fill="none" xmlns="http://www.w3.org/2000/svg">
<g clip-path="url(#clip0_32_510)">
<path fill-rule="evenodd" clip-rule="evenodd" d="M13.2422 0C13.3454 0 13.6219 0.0421875 13.8516 0.0984375C14.0813 0.15 14.5032 0.2625 14.7891 0.342188C15.075 0.421875 15.5344 0.576563 15.8204 0.684375C16.1063 0.792188 16.5047 0.960938 16.711 1.05938C16.9172 1.15313 17.2782 1.33594 17.5079 1.46719C17.7375 1.59844 18.1219 1.82812 18.3516 1.98281C18.5813 2.1375 19.0172 2.45625 19.3125 2.69531C19.6079 2.93438 20.1 3.37969 20.4 3.68437C20.7047 3.99375 21.1079 4.44375 21.3047 4.6875C21.4969 4.93125 21.8157 5.36719 22.0032 5.64844C22.1954 5.92969 22.5 6.45 22.6829 6.79688C22.861 7.14375 23.1047 7.67344 23.2266 7.96875C23.3438 8.26406 23.5125 8.75156 23.6016 9.04688C23.6907 9.34219 23.8172 9.83906 23.8782 10.1484C23.9719 10.5891 23.986 10.7484 23.9485 10.875C23.925 10.9641 23.8454 11.1 23.775 11.1703C23.7047 11.2406 23.5735 11.3203 23.4844 11.3438C23.3954 11.3672 23.2547 11.3719 23.1797 11.3578C23.1047 11.3438 22.9688 11.2828 22.8844 11.2219C22.8047 11.1609 22.711 11.0531 22.6829 10.9828C22.6594 10.9078 22.5938 10.65 22.5422 10.4062C22.486 10.1625 22.3922 9.76875 22.3266 9.53906C22.261 9.30937 22.1157 8.87344 21.9985 8.57812C21.886 8.28281 21.6563 7.77656 21.4875 7.45312C21.3188 7.12969 21.061 6.68906 20.9204 6.46875C20.775 6.24844 20.5219 5.89219 20.3532 5.67188C20.1844 5.45156 19.8141 5.03437 19.5282 4.73906C19.2422 4.44844 18.7969 4.03594 18.5391 3.825C18.2813 3.60938 17.9016 3.32344 17.6954 3.1875C17.4891 3.04688 17.1422 2.83125 16.9219 2.70469C16.7016 2.57812 16.3032 2.37656 16.0313 2.25C15.7594 2.12812 15.3938 1.97344 15.211 1.90312C15.0282 1.8375 14.7375 1.73906 14.5547 1.6875C14.3719 1.63125 13.9641 1.53281 13.6407 1.4625C13.3172 1.39219 12.9985 1.29844 12.9282 1.25156C12.8532 1.20938 12.7547 1.10156 12.7032 1.01719C12.6516 0.9375 12.6094 0.7875 12.6094 0.689062C12.6094 0.595312 12.6422 0.45 12.6797 0.375C12.7172 0.295312 12.8204 0.182812 12.9047 0.117188C13.0079 0.0375 13.1157 0 13.2422 0ZM4.57036 1.40625C4.79067 1.40625 5.05317 1.43906 5.20317 1.48125C5.3438 1.52344 5.57817 1.62187 5.7188 1.70156C5.9063 1.80469 6.44536 2.31094 7.71567 3.58125C9.2813 5.14688 9.47349 5.35313 9.6188 5.64844C9.70786 5.82656 9.81099 6.10313 9.8438 6.25781C9.87661 6.41719 9.89067 6.67031 9.87661 6.84375C9.86255 7.0125 9.8063 7.275 9.75474 7.42969C9.69849 7.58437 9.57661 7.82812 9.48286 7.96875C9.38442 8.10938 8.90161 8.63906 7.50474 10.0547L7.68286 10.4062C7.78599 10.5984 7.99692 10.9594 8.1563 11.2031C8.32036 11.4469 8.54536 11.775 8.66255 11.9297C8.78442 12.0844 9.0563 12.4219 9.27661 12.6797C9.49692 12.9375 9.95161 13.425 10.2891 13.7578C10.6219 14.0906 11.1282 14.5594 11.4047 14.7891C11.686 15.0188 12.1594 15.3844 12.4594 15.5953C12.7594 15.8063 13.2141 16.0828 13.9219 16.4531L14.8969 15.5016C15.4313 14.9766 15.961 14.4938 16.0782 14.4234C16.1954 14.3578 16.3829 14.2688 16.5 14.2266C16.6172 14.1844 16.8375 14.1328 16.9922 14.1094C17.1563 14.0859 17.4 14.0859 17.5782 14.1141C17.7516 14.1422 18.0375 14.2313 18.2344 14.3297C18.5672 14.4844 18.6844 14.5969 20.3251 16.2375C22.0219 17.9344 22.0688 17.9859 22.261 18.375C22.3829 18.6281 22.4672 18.8859 22.4954 19.0781C22.5235 19.2656 22.5235 19.5094 22.4954 19.7109C22.4672 19.9453 22.3969 20.1562 22.2563 20.4375C22.0735 20.7984 21.961 20.9297 21.0235 21.8906C20.4563 22.4719 19.9172 23.0156 19.8282 23.0906C19.7391 23.1703 19.561 23.3062 19.4297 23.3906C19.3032 23.4797 19.0782 23.6016 18.9375 23.6625C18.7969 23.7234 18.4829 23.8266 18.2485 23.8875C17.911 23.9719 17.6907 24 17.2829 24C16.9329 24 16.5391 23.9609 16.1016 23.8828C15.7407 23.8219 15.2532 23.7141 15.0235 23.6484C14.7938 23.5828 14.3907 23.4516 14.1329 23.3578C13.875 23.2641 13.3875 23.0672 13.0547 22.9219C12.7219 22.7719 12.1266 22.4812 11.7422 22.2797C11.3579 22.0734 10.8375 21.7828 10.5938 21.6328C10.35 21.4828 9.92817 21.2156 9.6563 21.0328C9.38442 20.85 8.93442 20.5312 8.64849 20.3203C8.36255 20.1094 7.87974 19.725 7.57036 19.4672C7.26099 19.2094 6.71255 18.7172 6.3563 18.3703C5.99536 18.0234 5.4563 17.4656 5.16099 17.1328C4.86099 16.8 4.44849 16.3125 4.23755 16.0547C4.0313 15.7969 3.73599 15.4172 3.5813 15.2109C3.42192 15.0047 3.10786 14.55 2.87349 14.2031C2.63911 13.8562 2.34849 13.4016 2.22192 13.1953C2.10005 12.9891 1.80474 12.4406 1.57036 11.9766C1.3313 11.5125 1.01255 10.8047 0.857861 10.4062C0.698486 10.0078 0.520361 9.51094 0.454736 9.30469C0.389111 9.09844 0.285986 8.68594 0.215674 8.39062C0.150049 8.09531 0.0750488 7.60781 0.0516113 7.3125C0.0234863 6.97031 0.0234863 6.59062 0.0516113 6.26719C0.0750488 5.97187 0.140674 5.61562 0.210986 5.4C0.276611 5.20312 0.412549 4.88437 0.515674 4.69687C0.651611 4.45781 0.909424 4.14375 1.42505 3.59531C1.8188 3.17812 2.35317 2.63438 2.6063 2.39062C2.85942 2.14687 3.2063 1.86094 3.37505 1.75781C3.5438 1.65937 3.79692 1.5375 3.93755 1.49531C4.08755 1.44375 4.35005 1.41094 4.57036 1.40625ZM2.88286 4.0875C2.05786 4.92188 1.77192 5.24062 1.67817 5.4375C1.60786 5.57812 1.5188 5.82188 1.47661 5.97656C1.43442 6.15469 1.4063 6.46406 1.4063 6.82031C1.4063 7.24219 1.43911 7.52812 1.52817 7.96875C1.59849 8.29219 1.75786 8.85938 1.88442 9.23438C2.01099 9.60938 2.25005 10.2094 2.40942 10.5703C2.5688 10.9312 2.85005 11.4984 3.03286 11.8359C3.21567 12.1687 3.52505 12.6891 3.71255 12.9844C3.90005 13.2797 4.21411 13.7437 4.4063 14.0156C4.59849 14.2875 4.95942 14.7609 5.20317 15.0703C5.45161 15.3797 5.9063 15.9187 6.21567 16.2656C6.52505 16.6125 7.06411 17.1656 7.41099 17.4891C7.75786 17.8172 8.24067 18.2484 8.48442 18.4547C8.72817 18.6562 9.18286 19.0172 9.49224 19.2469C9.80161 19.4813 10.275 19.8141 10.5469 19.9922C10.8188 20.1656 11.2688 20.4469 11.5547 20.6156C11.8407 20.7797 12.4172 21.0938 12.8438 21.3047C13.2704 21.5203 13.9125 21.8109 14.2735 21.9516C14.6344 22.0922 15.1313 22.2656 15.375 22.3312C15.6188 22.3969 15.9891 22.4813 16.1954 22.5234C16.4016 22.5609 16.7813 22.6078 17.0391 22.6219C17.3813 22.6406 17.6016 22.6313 17.8594 22.575C18.0516 22.5328 18.3188 22.4484 18.4454 22.3828C18.5766 22.3219 18.7875 22.1766 18.9141 22.0687C19.0454 21.9562 19.5516 21.4547 20.0438 20.9531C20.5922 20.3953 20.9813 19.9547 21.0469 19.8281C21.1079 19.7016 21.1547 19.5328 21.1547 19.4062C21.1547 19.2797 21.1079 19.1109 21.0469 18.9844C20.9766 18.8438 20.4469 18.2766 19.4344 17.2594C18.6094 16.425 17.8454 15.6891 17.7469 15.6188C17.6157 15.5297 17.4891 15.4875 17.3016 15.4734C17.1141 15.4641 16.9922 15.4828 16.875 15.5391C16.786 15.5859 16.2375 16.0922 15.6563 16.6641C15.075 17.2359 14.5266 17.7469 14.4375 17.7938C14.3344 17.8453 14.1704 17.8781 13.9875 17.8781C13.7204 17.8828 13.65 17.8594 13.1204 17.5828C12.8016 17.4188 12.2625 17.1047 11.9297 16.8844C11.5922 16.6594 11.0579 16.2703 10.7344 16.0125C10.411 15.7547 9.79692 15.1922 9.37036 14.7656C8.9438 14.3391 8.41411 13.7812 8.1938 13.5234C7.97817 13.2656 7.6313 12.8344 7.43442 12.5625C7.23286 12.2906 6.93755 11.85 6.77349 11.5781C6.61411 11.3062 6.40317 10.9172 6.30474 10.7109C6.17349 10.4297 6.12192 10.2563 6.10786 10.0078C6.08442 9.75469 6.09849 9.64219 6.16411 9.51562C6.2063 9.42656 6.71255 8.8875 7.28911 8.32031C8.01099 7.60313 8.36255 7.22344 8.42817 7.07812C8.48442 6.96094 8.5313 6.79219 8.5313 6.70312C8.5313 6.61406 8.48442 6.44531 8.43286 6.32812C8.36255 6.17344 7.92661 5.70469 6.75942 4.53281C5.66724 3.44062 5.1188 2.925 4.98286 2.85938C4.87036 2.80781 4.69224 2.76562 4.57974 2.76562C4.46724 2.77031 4.2938 2.81719 4.17192 2.88281C4.04067 2.94844 3.56255 3.39375 2.88286 4.0875ZM13.0782 4.35938C13.1672 4.35938 13.4532 4.41094 13.711 4.47188C13.9688 4.5375 14.3391 4.64531 14.5313 4.71562C14.7235 4.78125 15.075 4.93125 15.3047 5.03906C15.5391 5.15156 15.9469 5.38594 16.2188 5.56875C16.4907 5.75156 16.8797 6.05156 17.086 6.23438C17.2922 6.42188 17.6063 6.73594 17.7797 6.93281C17.9579 7.12969 18.2344 7.49062 18.3985 7.73438C18.5625 7.97813 18.8016 8.39062 18.9282 8.64844C19.0547 8.90625 19.2375 9.3375 19.3266 9.60938C19.4157 9.88125 19.5282 10.2797 19.5704 10.5C19.6125 10.7203 19.636 10.9688 19.6219 11.0484C19.6079 11.1328 19.5422 11.2641 19.4766 11.3438C19.411 11.4187 19.2797 11.5078 19.186 11.5359C19.0875 11.5641 18.9329 11.5781 18.8438 11.5641C18.7547 11.5453 18.6235 11.4937 18.5532 11.4375C18.4782 11.3859 18.3938 11.2875 18.3563 11.2125C18.3235 11.1422 18.2579 10.9172 18.211 10.7109C18.1641 10.5047 18.0657 10.1578 17.9907 9.9375C17.911 9.71719 17.7797 9.40312 17.6954 9.23438C17.611 9.06563 17.4094 8.72812 17.2454 8.48438C17.0813 8.24063 16.7672 7.85156 16.5469 7.62188C16.3266 7.39219 15.9704 7.07344 15.75 6.90937C15.5297 6.74531 15.15 6.50625 14.9063 6.37969C14.6625 6.25313 14.325 6.09375 14.1563 6.03281C13.9875 5.97187 13.6219 5.85938 13.336 5.79375C13.0547 5.72344 12.7735 5.63438 12.7172 5.59688C12.6563 5.55938 12.5672 5.46094 12.5157 5.37656C12.4641 5.29219 12.4219 5.14219 12.4219 5.03906C12.4219 4.93594 12.4641 4.78594 12.5157 4.69687C12.5672 4.61719 12.6797 4.50469 12.7641 4.45312C12.8438 4.40156 12.9891 4.35938 13.0782 4.35938Z" fill="black"/>
</g>
<defs>
<clipPath id="clip0_32_510">
<rect width="24" height="24" fill="white"/>
</clipPath>
</defs>
</svg>
