<svg width="29" height="27" viewBox="0 0 29 27" fill="none" xmlns="http://www.w3.org/2000/svg">
<path fill-rule="evenodd" clip-rule="evenodd" d="M27.4433 0.581385C27.2875 0.625342 24.3685 1.79859 20.9566 3.18867C17.5448 4.5787 11.6813 6.96744 7.92665 8.49693C4.17203 10.0265 0.958321 11.3517 0.785079 11.4418C0.440634 11.621 0.0755111 11.9977 0.0188589 12.2321C-0.074957 12.6205 0.188192 13.115 0.653703 13.4251C0.967726 13.6343 7.2675 15.8722 7.42681 15.8311C7.47904 15.8176 11.2239 13.3647 15.7486 10.3802C20.2733 7.39577 24.0461 4.9283 24.1326 4.89699C24.3512 4.81784 24.6442 4.85821 24.7161 4.97743C24.8776 5.24553 25.1802 4.9506 14.8251 14.6164C11.6268 17.6018 11.3959 17.83 11.485 17.9191C11.5377 17.9717 13.9261 19.8778 16.7927 22.1548C20.6845 25.2463 22.0765 26.3208 22.288 26.3971C22.6994 26.5454 23.188 26.5325 23.5343 26.3643C23.8022 26.2341 24.2145 25.8357 24.3466 25.5792C24.4107 25.4549 29.0021 1.48677 29 1.2877C28.9974 1.03961 28.7922 0.692307 28.5892 0.592212C28.3484 0.473582 27.8423 0.468815 27.4433 0.581385Z" fill="#E3C05C"/>
</svg>
