<svg width="13" height="7" viewBox="0 0 13 7" fill="none" xmlns="http://www.w3.org/2000/svg">
<path d="M6.90498 6.83468L12.8455 0.89447C12.9447 0.795355 13 0.663673 13 0.526737C13 0.389802 12.9447 0.258121 12.8455 0.159006L12.8388 0.15261C12.7907 0.104394 12.7329 0.0660014 12.6687 0.0397658C12.6046 0.0135302 12.5355 9.13066e-07 12.4657 9.06964e-07C12.3959 9.00862e-07 12.3268 0.0135302 12.2627 0.0397658C12.1985 0.0660013 12.1407 0.104394 12.0926 0.15261L6.49888 5.7464L0.907407 0.152609C0.859332 0.104393 0.801463 0.0660003 0.737322 0.0397648C0.673181 0.0135292 0.604109 -1.30009e-07 0.534307 -1.36111e-07C0.464506 -1.42213e-07 0.395433 0.0135292 0.331293 0.0397647C0.267151 0.0660003 0.209283 0.104393 0.161207 0.152609L0.154494 0.159005C0.0553232 0.25812 5.77882e-07 0.3898 5.65911e-07 0.526736C5.53939e-07 0.663672 0.0553232 0.795354 0.154494 0.894469L6.09502 6.83468C6.14726 6.88692 6.21009 6.92851 6.2797 6.95693C6.34932 6.98535 6.42427 7 6.5 7C6.57574 7 6.65068 6.98535 6.7203 6.95693C6.78991 6.92851 6.85274 6.88692 6.90498 6.83468Z" fill="black"/>
</svg>
