<svg width="33" height="33" viewBox="0 0 33 33" fill="none" xmlns="http://www.w3.org/2000/svg">
<path fill-rule="evenodd" clip-rule="evenodd" d="M14.6036 0.0984692C6.9748 1.03544 0.979104 7.11691 0.189597 14.7188C0.0726048 15.8454 0.143465 17.9787 0.333742 19.0554C0.634916 20.7603 1.13329 22.2603 1.90791 23.7931L2.29712 24.5634L1.13738 28.7733C0.499498 31.0887 -0.0121782 32.9907 0.000220666 32.9999C0.0126888 33.009 1.95543 32.509 4.31744 31.8889C7.756 30.986 8.64649 30.7743 8.78517 30.8269C8.88041 30.8629 9.33238 31.0611 9.78954 31.2671C11.2744 31.9362 12.8336 32.38 14.4744 32.6005C15.6146 32.7538 17.6158 32.7529 18.725 32.5986C22.3658 32.0921 25.6185 30.4921 28.1823 27.9465C29.5229 26.6155 30.4144 25.398 31.2631 23.7391C32.0274 22.2451 32.5667 20.6165 32.868 18.8921C33.0442 17.8842 33.0439 14.9226 32.8676 13.8664C32.5697 12.0821 32.1099 10.6564 31.3243 9.08173C29.0886 4.60056 24.9599 1.40617 20.0233 0.338117C18.4845 0.00518477 16.1896 -0.0962923 14.6036 0.0984692ZM18.9328 2.94781C20.9198 3.31303 22.5675 3.97277 24.1971 5.05563C26.9793 6.90438 29.0273 9.7752 29.8368 12.9611C30.4314 15.3007 30.3846 17.958 29.7094 20.2077C28.6177 23.8452 26.0157 26.9071 22.6106 28.5609C20.631 29.5224 18.7992 29.9417 16.5777 29.9417C14.0316 29.9417 11.7745 29.3276 9.47098 28.0082L9.08309 27.786L6.53385 28.4517C5.13174 28.8178 3.97394 29.1068 3.96092 29.0939C3.94789 29.081 4.23556 27.9906 4.60018 26.6708C4.96474 25.351 5.2657 24.2226 5.26896 24.1633C5.27221 24.104 5.09295 23.7611 4.8706 23.4014C1.60382 18.1171 2.46004 11.1483 6.91752 6.74101C9.13483 4.54866 11.9419 3.20137 15.0885 2.81928C15.9383 2.71608 18.0574 2.78692 18.9328 2.94781ZM10.1114 8.95478C9.71085 9.15188 8.97891 10.0111 8.67289 10.6434C8.07178 11.8855 8.08405 13.4512 8.7062 14.901C9.47077 16.6826 11.4712 19.2123 13.446 20.8946C14.8303 22.0737 15.9868 22.7647 17.686 23.4275C19.4218 24.1046 19.7547 24.1826 20.9069 24.1821C21.8131 24.1818 21.9569 24.1646 22.3783 24.0068C23.0711 23.7474 23.5882 23.4206 24.1033 22.9166C24.503 22.5255 24.5835 22.4032 24.7143 21.9872C24.8775 21.4686 24.9708 20.634 24.8978 20.3451C24.8597 20.194 24.664 20.0714 23.6799 19.5817C21.8769 18.6845 21.1501 18.3758 20.8413 18.3758C20.5882 18.3758 20.5451 18.4066 20.2391 18.806C19.5397 19.7191 18.898 20.4262 18.7308 20.4679C18.5305 20.5179 18.137 20.3747 17.2281 19.921C15.7566 19.1865 14.5561 18.2043 13.5239 16.8904C12.9622 16.1754 12.4563 15.3606 12.4563 15.1708C12.4563 15.0895 12.7168 14.6853 13.0351 14.2726C13.659 13.4638 13.8417 13.1619 13.8417 12.9398C13.8417 12.8619 13.7064 12.4808 13.5411 12.0931C13.3757 11.7053 13.0423 10.9078 12.8 10.3209C12.4998 9.59352 12.289 9.18259 12.1378 9.0301L11.916 8.80635L11.1645 8.80642C10.5345 8.80642 10.3642 8.83045 10.1114 8.95478Z" fill="#E3C05C"/>
</svg>
