<svg width="64" height="44" viewBox="0 0 64 44" fill="none" xmlns="http://www.w3.org/2000/svg">
<path fill-rule="evenodd" clip-rule="evenodd" d="M5.96875 0.75C7.92109 0.75 7.97422 0.763281 8.29297 1.08203C8.50547 1.29453 8.625 1.56016 8.625 1.8125C8.625 2.05156 8.50547 2.34375 8.29297 2.54297C7.97422 2.86172 7.93437 2.875 5.96875 2.875C4.01641 2.875 3.96328 2.86172 3.64453 2.54297C3.43203 2.33047 3.3125 2.06484 3.3125 1.8125C3.32578 1.56016 3.45859 1.26797 3.64453 1.08203C3.95 0.763281 4.01641 0.75 5.96875 0.75ZM11.4008 0.75H36.6484L36.9805 1.08203C37.3125 1.41406 37.3125 1.44063 37.3125 6.0625H43.1961C48.0039 6.0625 49.1727 6.08906 49.6641 6.24844C50.0094 6.36797 50.5008 6.68672 50.8328 7.01875C51.3641 7.55 51.6031 8.09453 57.3008 22.3055L60.4617 23.8859C62.3875 24.8422 63.6625 25.5594 63.7422 25.7188C63.8219 25.8781 63.875 28.3086 63.875 38.3359L63.2242 39H56.0391L55.707 38.668C55.4547 38.4156 55.375 38.2031 55.375 37.7781C55.375 37.4594 55.282 36.8617 55.1758 36.45C55.0695 36.025 54.8172 35.3609 54.618 34.9891C54.432 34.6039 53.9539 33.9531 53.582 33.5547C53.1969 33.1562 52.5328 32.6383 52.1078 32.3992C51.6695 32.1734 50.9656 31.8813 50.5273 31.775C50.0891 31.6555 49.3984 31.5625 49 31.5625C48.6016 31.5625 47.9242 31.6555 47.5125 31.7617C47.0875 31.868 46.4234 32.1203 46.0516 32.3195C45.6664 32.5055 45.0156 32.9836 44.6172 33.3555C44.2188 33.7406 43.7008 34.4047 43.4617 34.8297C43.2359 35.268 42.9438 35.9719 42.8375 36.4102C42.718 36.8484 42.625 37.4594 42.625 37.7781C42.625 38.1898 42.5453 38.4156 41.9742 39H22.0391L21.707 38.668C21.4547 38.4156 21.375 38.2031 21.375 37.7781C21.375 37.4594 21.282 36.8617 21.1758 36.45C21.0695 36.025 20.8172 35.3609 20.618 34.9891C20.432 34.6039 19.9539 33.9531 19.582 33.5547C19.1969 33.1562 18.5328 32.6383 18.1078 32.3992C17.6695 32.1734 16.9656 31.8813 16.5273 31.775C16.0891 31.6555 15.3984 31.5625 15 31.5625C14.6016 31.5625 13.9109 31.6555 13.4727 31.775C13.0344 31.8813 12.3305 32.1734 11.8922 32.3992C11.4672 32.6383 10.8031 33.1562 10.418 33.5547C10.0461 33.9531 9.56797 34.6039 9.38203 34.9891C9.18281 35.3609 8.93047 36.025 8.82422 36.45C8.71797 36.8617 8.625 37.4594 8.625 37.7781C8.625 38.1898 8.54531 38.4156 8.29297 38.668C8.09375 38.8805 7.82812 39 7.5625 39C7.31016 39 7.04453 38.8805 6.83203 38.668C6.56641 38.4023 6.5 38.2031 6.5 37.7117C6.5 37.3531 6.59297 36.6625 6.69922 36.1445C6.80547 35.6266 7.15078 34.7102 7.45625 34.0859C7.88125 33.2227 8.23984 32.718 9.01016 31.9477C9.78047 31.1773 10.2852 30.8188 11.1484 30.3938C11.7727 30.0883 12.7023 29.743 13.207 29.6367C13.7117 29.5305 14.5219 29.4375 15 29.4375C15.4781 29.4375 16.2883 29.5305 16.793 29.6367C17.2977 29.743 18.2008 30.0617 18.7852 30.3539C19.4492 30.6727 20.2062 31.2039 21.7734 32.625H42.2266L43.1828 31.7484C43.7938 31.2039 44.5508 30.6727 45.2148 30.3539C45.7992 30.0617 46.6891 29.743 47.207 29.6367C47.725 29.5305 48.5219 29.4375 49 29.4375C49.4781 29.4375 50.275 29.5305 50.793 29.6367C51.3109 29.743 52.2008 30.0617 52.7852 30.3539C53.4492 30.6727 54.2062 31.2039 55.7734 32.625H61.75V26.9141L55.5742 23.793L52.5594 16.2227C50.4477 10.9234 49.4383 8.58594 49.2391 8.41328C48.9602 8.1875 48.5086 8.17422 37.3125 8.1875V27.7109L36.6617 28.375H7.16406L6.83203 28.043C6.61953 27.8305 6.5 27.5648 6.5 27.3125C6.5 27.0734 6.61953 26.7812 7.15078 26.25H35.1875V2.875H11.4141L11.082 2.54297C10.8695 2.33047 10.75 2.06484 10.75 1.8125C10.7633 1.56016 10.8961 1.26797 11.082 1.08203L11.4008 0.75ZM23.1281 35.4406C23.2477 35.8258 23.3539 36.3039 23.3672 36.5031V36.875H40.5664C40.8055 35.6797 40.9117 35.2016 40.9516 35.0422L41.0312 34.75H22.8891L23.1281 35.4406ZM57.1281 35.4406C57.2609 35.8125 57.3672 36.2906 57.3672 36.5031V36.8617H61.75V34.7367H56.9023L57.1281 35.4406ZM0.775781 17.75H11.0156L11.3477 18.082C11.5469 18.2812 11.6797 18.5602 11.6797 18.8125C11.6797 19.0516 11.5469 19.3305 11.0289 19.875H0.789062L0.457031 19.543C0.244531 19.3172 0.125 19.0648 0.125 18.7992C0.138281 18.5602 0.257812 18.268 0.457031 18.0687L0.775781 17.75ZM2.23672 26.25C3.63125 26.25 3.72422 26.2633 4.04297 26.582C4.24219 26.7945 4.375 27.0602 4.375 27.3125C4.375 27.5516 4.24219 27.8438 4.04297 28.043C3.7375 28.3617 3.64453 28.375 2.25 28.375C0.86875 28.375 0.7625 28.3617 0.457031 28.043C0.244531 27.8305 0.125 27.5648 0.125 27.3125C0.138281 27.0602 0.257812 26.768 0.457031 26.582C0.749219 26.2766 0.855469 26.25 2.23672 26.25ZM15.2656 32.6781C16.0227 32.7047 16.4609 32.8109 17.125 33.1164C17.6031 33.3289 18.2805 33.7672 18.6258 34.0992C19.0375 34.4711 19.4492 35.0289 19.7547 35.6797C20.2195 36.6094 20.2461 36.7422 20.2461 37.9375C20.2461 39.1328 20.2195 39.2789 19.7547 40.2086C19.4492 40.8461 19.0375 41.4039 18.6258 41.7891C18.2805 42.1078 17.55 42.5727 17.0187 42.8117C16.1953 43.1969 15.9164 43.25 15 43.25C14.0836 43.25 13.8047 43.1969 12.968 42.8117C12.4367 42.5727 11.7195 42.1078 11.3609 41.7891C10.9492 41.4039 10.5508 40.8461 10.232 40.2086C9.78047 39.2789 9.75391 39.1328 9.75391 37.9508C9.75391 36.8086 9.79375 36.5828 10.1523 35.8125C10.3781 35.3344 10.8031 34.6836 11.0953 34.3516C11.4008 34.0195 11.9984 33.568 12.4234 33.3289C12.8484 33.1031 13.4461 32.8508 13.7383 32.7711C14.0305 32.6914 14.7211 32.6516 15.2656 32.6781ZM12.7953 35.7461C12.3969 36.1445 12.0648 36.6227 11.9719 36.9414C11.8922 37.2336 11.8125 37.6852 11.8125 37.9375C11.8125 38.1898 11.8922 38.6414 11.9719 38.9336C12.0648 39.2656 12.3969 39.7305 12.7953 40.1289C13.207 40.5406 13.6719 40.8594 14.0039 40.9656C14.2961 41.0453 14.7477 41.125 15 41.125C15.2523 41.125 15.7039 41.0453 15.9961 40.9656C16.3148 40.8594 16.7797 40.5406 17.1914 40.1289C17.6031 39.7305 17.9219 39.2656 18.0148 38.9336C18.1078 38.6414 18.1742 38.1898 18.1742 37.9375C18.1742 37.6852 18.1078 37.2336 18.0148 36.9414C17.9219 36.6227 17.6031 36.1578 17.1914 35.7461C16.7797 35.3344 16.3148 35.0156 15.9961 34.9094C15.7039 34.8297 15.2258 34.7633 14.9336 34.7633C14.6414 34.7766 14.1898 34.843 13.9375 34.9227C13.6852 35.0023 13.1672 35.3742 12.7953 35.7461ZM49.2656 32.6781C50.0227 32.7047 50.4609 32.8109 51.125 33.1164C51.6031 33.3289 52.2805 33.7672 52.6258 34.0992C53.0375 34.4711 53.4492 35.0289 53.7547 35.6797C54.2195 36.6094 54.2461 36.7422 54.2461 37.9375C54.2461 39.1328 54.2195 39.2789 53.7547 40.2086C53.4492 40.8461 53.0375 41.4039 52.6258 41.7891C52.2805 42.1078 51.55 42.5727 51.0188 42.8117C50.1953 43.1969 49.9164 43.25 49 43.25C48.0836 43.25 47.8047 43.1969 46.968 42.8117C46.4367 42.5727 45.7195 42.1078 45.3609 41.7891C44.9492 41.4039 44.5508 40.8461 44.232 40.2086C43.7805 39.2789 43.7539 39.1328 43.7539 37.9508C43.7539 36.8086 43.7938 36.5828 44.1523 35.8125C44.3781 35.3344 44.8031 34.6836 45.0953 34.3516C45.4008 34.0195 45.9984 33.568 46.4234 33.3289C46.8484 33.1031 47.4461 32.8508 47.7383 32.7711C48.0305 32.6914 48.7211 32.6516 49.2656 32.6781ZM46.7953 35.7461C46.3969 36.1445 46.0648 36.6227 45.9719 36.9414C45.8922 37.2336 45.8125 37.6852 45.8125 37.9375C45.8125 38.1898 45.8922 38.6414 45.9719 38.9336C46.0648 39.2656 46.3969 39.7305 46.7953 40.1289C47.207 40.5406 47.6719 40.8594 48.0039 40.9656C48.2961 41.0453 48.7477 41.125 49 41.125C49.2523 41.125 49.7039 41.0453 49.9961 40.9656C50.3148 40.8594 50.7797 40.5406 51.1914 40.1289C51.6031 39.7305 51.9219 39.2656 52.0148 38.9336C52.1078 38.6414 52.1742 38.1898 52.1742 37.9375C52.1742 37.6852 52.1078 37.2336 52.0148 36.9414C51.9219 36.6227 51.6031 36.1578 51.1914 35.7461C50.7797 35.3344 50.3148 35.0156 49.9961 34.9094C49.7039 34.8297 49.2258 34.7633 48.9336 34.7633C48.6414 34.7766 48.1898 34.843 47.9375 34.9227C47.6852 35.0023 47.1672 35.3742 46.7953 35.7461ZM1.83828 8.1875H17.5234L17.8555 8.51953C18.0547 8.73203 18.1875 8.99766 18.1875 9.25C18.1875 9.48906 18.0547 9.78125 17.5367 10.3125H1.85156L1.51953 9.98047C1.30703 9.76797 1.1875 9.50234 1.1875 9.25C1.20078 8.99766 1.32031 8.70547 1.51953 8.51953L1.83828 8.1875ZM40.0883 10.3125L43.6477 10.2992C46.875 10.2992 47.2336 10.3125 47.4992 10.5383C47.7117 10.7109 48.4156 12.4641 49.9961 16.8203C51.1914 20.1406 52.1875 22.9961 52.1875 23.1555C52.1875 23.3281 52.0414 23.607 51.5367 24.125H40.1016L39.4375 23.4609L39.4508 10.9633L40.0883 10.3125ZM41.5625 22C47.7383 22 49.5312 21.9469 49.5312 21.8937C49.5312 21.8406 48.7609 19.6891 47.8313 17.1125L46.1445 12.4375H41.5625V22Z" fill="#E3C05C"/>
</svg>
