<svg width="62" height="40" viewBox="0 0 62 40" fill="none" xmlns="http://www.w3.org/2000/svg">
<path fill-rule="evenodd" clip-rule="evenodd" d="M38.77 0.755469L47.7348 0.742188L48.2661 1.07422C48.5981 1.28672 48.8903 1.61875 49.0629 1.97734C49.302 2.49531 49.3286 2.82734 49.3286 6.825C49.3286 9.41484 49.2754 11.2078 49.1958 11.3672C49.0629 11.6328 49.1028 11.6328 51.8918 11.6328C54.5481 11.6328 54.7473 11.6594 55.2918 11.9383C55.6106 12.0977 55.9958 12.4297 56.1551 12.6953C56.4208 13.1336 56.434 13.3594 56.5004 20.6641L60.5512 20.6773L61.534 21.6602L61.5473 26.2156C61.5473 29.3234 61.4942 30.957 61.3879 31.3953C61.2817 31.8203 61.0559 32.1922 60.6973 32.5508C60.3918 32.843 59.9137 33.1617 59.6215 33.2547C59.2895 33.3477 58.2137 33.4141 54.5747 33.4141L54.4286 34.1047C54.3489 34.4898 54.1098 35.1672 53.8973 35.6055C53.6848 36.0438 53.1934 36.7477 52.7817 37.1859C52.3833 37.6109 51.7856 38.1156 51.4536 38.3148C51.1215 38.5008 50.4708 38.793 49.9926 38.9523C49.3817 39.1648 48.8372 39.2578 48.1333 39.2578C47.5223 39.2578 46.845 39.1516 46.4067 39.0055C46.0083 38.8727 45.4106 38.6336 45.0786 38.4609C44.7465 38.2883 44.0825 37.757 43.6043 37.2789C43.1262 36.8008 42.5817 36.0703 42.3825 35.6719C42.1833 35.2734 41.9442 34.5961 41.6918 33.4141H22.6997L22.5536 34.1047C22.4739 34.4898 22.2348 35.1672 22.0223 35.6055C21.8098 36.0305 21.3051 36.7477 20.9067 37.1727C20.5083 37.6109 19.9106 38.1156 19.5786 38.3148C19.2465 38.5008 18.5958 38.793 18.1176 38.9523C17.5067 39.1648 16.9622 39.2578 16.2583 39.2578C15.6473 39.2578 14.97 39.1516 14.5317 39.0055C14.1333 38.8727 13.5356 38.6336 13.2036 38.4609C12.8715 38.2883 12.2075 37.757 11.7293 37.2789C11.2512 36.8008 10.7067 36.0703 10.5075 35.6719C10.3083 35.2734 10.0692 34.5961 9.81685 33.4141H6.36372C4.03951 33.4141 2.73794 33.3609 2.37935 33.2547C2.08716 33.1617 1.60904 32.843 1.31685 32.5508C1.02466 32.2586 0.705912 31.7805 0.612943 31.4883C0.506693 31.1031 0.453568 29.2703 0.466849 24.8477C0.466849 19.8273 0.493412 18.6453 0.666068 18.207C0.772318 17.9148 0.958255 17.5695 1.09107 17.4367C1.2106 17.3039 2.2731 16.4937 3.42857 15.6437C4.59732 14.7937 5.59341 14.0633 5.65982 14.0234C5.71294 13.9836 6.43013 12.257 7.22701 10.1719C8.03716 8.08672 9.03325 5.52344 9.44497 4.46094C9.90982 3.26562 10.3614 2.3625 10.6137 2.08359C10.8262 1.83125 11.2512 1.52578 11.5434 1.39297C12.0348 1.16719 12.5793 1.14062 18.4098 1.14062C23.6028 1.14062 24.8247 1.18047 25.1168 1.32656C25.3293 1.43281 25.6348 1.67187 26.1528 2.22969L26.2192 20.6641H30.0708L30.0973 16.9055C30.1372 13.3594 30.1504 13.1336 30.4161 12.6953C30.5754 12.4297 30.9606 12.0977 31.2794 11.9383C31.8239 11.6594 32.0231 11.6328 37.5083 11.6328L37.3754 11.3008C37.2958 11.1016 37.2426 9.24219 37.2426 6.74531C37.2426 2.61484 37.2426 2.52187 37.5348 1.96406C37.7075 1.65859 38.0528 1.26016 38.3051 1.07422L38.77 0.755469ZM38.4512 2.60156L38.4379 10.9688L39.102 11.6328H47.4825L48.1333 10.9688V2.60156L47.4692 1.9375H39.0887L38.4512 2.60156ZM8.62154 9.91953C7.83794 11.9383 7.17388 13.6516 7.14732 13.7445C7.10747 13.8773 8.95357 13.9039 16.059 13.9039H25.0239V5.93516C11.7825 5.93516 10.1622 5.975 10.109 6.10781C10.0692 6.20078 9.40513 7.91406 8.62154 9.91953ZM31.3325 13.3594V20.6109L40.9614 20.6773C40.9614 13.4125 40.9614 13.3727 40.6692 13.107C40.377 12.8547 40.1911 12.8414 36.1668 12.8414C32.2356 12.8414 31.9434 12.868 31.6512 13.0938L31.3325 13.3594ZM42.1567 16.9719V20.6906H44.4145C44.4145 15.0859 44.4411 13.3195 44.4809 13.1602C44.5473 12.868 44.5208 12.8547 43.259 12.8547C42.17 12.8547 41.9973 12.8812 42.0637 13.0539C42.1168 13.1602 42.1567 14.9266 42.1567 16.9719ZM45.5567 13.4789L45.6098 20.6906L55.2387 20.6242V13.3594C54.5879 12.8547 54.3489 12.8414 50.3778 12.8547H46.1809L45.5567 13.4789ZM4.06607 16.7195C2.79107 17.6625 1.86138 18.4461 1.78169 18.6453C1.71529 18.8313 1.64888 19.4555 1.64888 20.0398V21.1023C4.79654 21.0891 5.07544 21.1289 5.26138 21.3281C5.47388 21.5406 5.50044 21.9125 5.50044 24.5555C5.51372 27.2516 5.48716 27.5703 5.27466 27.7695C5.07544 27.9688 4.76997 27.9953 3.34888 28.0086H1.64888C1.64888 30.3461 1.71529 30.9437 1.8481 31.2625C1.95435 31.5148 2.24654 31.8469 2.4856 31.993C2.88404 32.232 3.14966 32.2586 6.36372 32.2586H9.81685C9.96294 31.2758 10.2286 30.5453 10.5075 30.0008C10.8262 29.3766 11.2778 28.7391 11.7426 28.2742C12.1543 27.8758 12.7786 27.3844 13.1372 27.1852C13.509 26.9859 14.1598 26.7336 14.5981 26.6273C15.0364 26.5078 15.7801 26.4148 16.2583 26.4148C16.7364 26.4148 17.4801 26.5078 17.9184 26.6273C18.3567 26.7336 19.0075 26.9859 19.3661 27.1852C19.7247 27.3844 20.3622 27.8758 20.7739 28.2742C21.2122 28.6992 21.6903 29.3633 21.9426 29.868C22.1817 30.3461 22.4473 31.0766 22.5403 31.5016L22.6997 32.2586H25.0239V15.1258H6.23091L4.06607 16.7195ZM26.2059 32.2586H41.6786C41.8379 31.2758 42.1036 30.5586 42.3559 30.0273C42.6481 29.4031 43.0731 28.8055 43.5778 28.3008C44.0028 27.8891 44.6403 27.3844 45.0122 27.1852C45.3708 26.9859 46.0215 26.7336 46.4598 26.6273C46.8981 26.5078 47.6551 26.4148 48.12 26.4148C48.5981 26.4148 49.3419 26.5078 49.7801 26.6273C50.2184 26.7336 50.8692 26.9859 51.2411 27.1852C51.5997 27.3844 52.2239 27.8758 52.6356 28.2742C53.0739 28.6992 53.552 29.3633 53.8044 29.868C54.0434 30.3461 54.309 31.0766 54.402 31.5016L54.5614 32.2586C58.3465 32.2586 59.1833 32.2055 59.3958 32.0859C59.5817 31.993 59.834 31.7805 59.9669 31.5945C60.0997 31.4086 60.2192 31.1164 60.2458 30.9305C60.2723 30.5984 60.2723 30.5984 59.0504 30.5586C57.8817 30.532 57.8153 30.5187 57.6825 30.2C57.6161 30.0141 57.5497 28.7656 57.5497 27.4109C57.5497 26.0562 57.6161 24.8078 57.6825 24.6219C57.8153 24.3031 57.8817 24.2898 59.0504 24.25L60.2723 24.2234C60.3387 22.882 60.3254 22.3641 60.2856 22.1914L60.2059 21.8992H26.2059V32.2586ZM1.67544 24.6883L1.70201 26.7469L4.29185 26.8133V22.2977C2.11372 22.2977 1.75513 22.3375 1.71529 22.4703C1.67544 22.5633 1.66216 23.5594 1.67544 24.6883ZM14.7309 30.8641C14.4254 31.1031 14.1067 31.5016 13.9473 31.8602C13.7791 32.2586 13.7127 32.657 13.7481 33.0555C13.7747 33.3875 13.9473 33.8922 14.1333 34.1844C14.3458 34.5031 14.7043 34.8352 15.0629 35.0078C15.395 35.1805 15.8997 35.3133 16.2184 35.3133C16.5239 35.3133 16.9754 35.2336 17.2145 35.1406C17.4536 35.0344 17.8254 34.7687 18.0379 34.543C18.2637 34.3039 18.5161 33.9188 18.5958 33.6797C18.6887 33.4539 18.7551 33.0422 18.7551 32.7898C18.7684 32.5375 18.6622 32.0859 18.5294 31.7937C18.3965 31.5016 18.0911 31.1031 17.8387 30.9039C17.5864 30.718 17.1348 30.4922 16.8426 30.4125C16.5504 30.3328 16.2583 30.2664 16.1786 30.2797C16.1122 30.293 15.8731 30.3328 15.6473 30.3859C15.4348 30.4258 15.0231 30.6516 14.7309 30.8641ZM46.5395 30.9039C46.2872 31.1031 45.9684 31.5281 45.8223 31.8602C45.6231 32.3117 45.5833 32.6172 45.6497 33.1219C45.7028 33.5336 45.8754 33.9852 46.1012 34.2906C46.3004 34.5695 46.6989 34.9148 46.9911 35.0477C47.2833 35.1937 47.8012 35.3133 48.12 35.3133C48.452 35.3133 48.9567 35.1937 49.2489 35.0477C49.5411 34.9148 49.9129 34.6227 50.059 34.4234C50.2184 34.2242 50.4043 33.8391 50.4973 33.5867C50.577 33.3344 50.6567 32.9359 50.6434 32.7234C50.6434 32.4977 50.5372 32.0859 50.4044 31.7937C50.2715 31.5016 49.9661 31.1031 49.7137 30.9039C49.4614 30.718 49.0098 30.4922 48.7176 30.4125C48.4254 30.3328 48.1333 30.2664 48.0536 30.2797C47.9872 30.2797 47.7215 30.3461 47.4559 30.4258C47.2036 30.4922 46.7919 30.718 46.5395 30.9039ZM20.6012 18.5922C21.345 18.5789 22.1153 18.632 22.2879 18.7117C22.5668 18.818 22.62 18.9242 22.5536 19.7078H18.702L18.6754 19.2695C18.6489 18.9375 18.702 18.818 18.9411 18.725C19.1004 18.6453 19.8442 18.5922 20.6012 18.5922ZM16.4442 31.5547C16.67 31.5945 16.9887 31.7539 17.1481 31.9133C17.3208 32.0594 17.4934 32.3648 17.5333 32.5906C17.5731 32.8297 17.52 33.1617 17.3872 33.4141C17.2809 33.6531 17.0551 33.9055 16.909 33.9852C16.7629 34.0516 16.4708 34.118 16.245 34.118C16.0325 34.118 15.727 34.0516 15.5809 33.9852C15.4348 33.9055 15.2356 33.6664 15.1161 33.4539C15.0098 33.2281 14.9168 32.9227 14.9168 32.75C14.9168 32.5906 15.0364 32.2852 15.1825 32.0859C15.3418 31.8734 15.5942 31.6477 15.7536 31.5945C15.9129 31.5281 16.2317 31.5016 16.4442 31.5547ZM48.3856 31.568C48.5715 31.5945 48.8637 31.7539 49.0231 31.9133C49.1958 32.0594 49.3684 32.3648 49.4083 32.5906C49.4481 32.8297 49.395 33.1617 49.2622 33.4141C49.1559 33.6531 48.9301 33.9055 48.784 33.9852C48.6379 34.0516 48.3458 34.118 48.12 34.118C47.9075 34.118 47.602 34.0516 47.4559 33.9852C47.3098 33.9055 47.1106 33.6664 46.9911 33.4539C46.8848 33.2281 46.7918 32.9094 46.7918 32.7234C46.7918 32.5375 46.9512 32.2188 47.1372 32.0062C47.3098 31.7805 47.602 31.5812 47.7614 31.5547C47.9208 31.5281 48.2129 31.5281 48.3856 31.568Z" fill="#E3C05C"/>
</svg>
