<svg width="50" height="50" viewBox="0 0 50 50" fill="none" xmlns="http://www.w3.org/2000/svg">
<g clip-path="url(#clip0_810_104)">
<path fill-rule="evenodd" clip-rule="evenodd" d="M33.4277 0.40042C33.9453 0.390655 34.7168 0.439483 35.127 0.498077C35.5469 0.55667 36.2207 0.683624 36.6211 0.791045C37.0215 0.888702 37.7734 1.18167 38.2812 1.42581C39.0234 1.7969 39.3555 2.03128 39.9512 2.62698C40.4199 3.08597 40.8105 3.59378 40.9863 3.95511C41.1523 4.27737 41.3965 4.89261 41.5332 5.3223C41.6699 5.75198 41.8555 6.59183 41.9434 7.17776C42.0312 7.7637 42.1094 8.69144 42.1094 9.22855C42.1191 9.91214 42.0801 10.3223 41.9727 10.5957C41.875 10.8203 41.7871 11.4356 41.7578 12.0606C41.7285 12.6856 41.6211 13.4375 41.5039 13.8672C41.3965 14.2676 41.0645 15.0782 40.7715 15.6739C40.4492 16.3379 39.9805 17.0703 38.8672 18.4571L38.916 21.1231L40.6738 21.875C41.6406 22.2852 42.8711 22.8418 43.4082 23.1153C43.9453 23.3887 44.7949 23.877 45.2832 24.209C45.7812 24.541 46.5234 25.127 46.9336 25.5176C47.3438 25.8985 47.8711 26.4844 48.1055 26.8067C48.3301 27.1289 48.6719 27.7246 48.8574 28.125C49.043 28.5254 49.2676 29.1407 49.3652 29.4922C49.4531 29.8438 49.5508 30.6348 49.5898 31.25C49.6484 32.3633 49.6484 32.3731 49.1309 32.9102H25.5859L25.5762 48.4864L25.3613 48.8477C25.2441 49.0528 24.9805 49.3067 24.7754 49.4141C24.4141 49.6094 24.2578 49.6094 12.9004 49.5899C1.55274 49.5606 1.37695 49.5606 1.11328 49.3653C0.976562 49.2578 0.761719 49.043 0.439453 48.6231L0.390625 28.125L0.605469 27.7442C0.722656 27.5391 0.976562 27.2754 1.17188 27.168C1.51367 26.9629 1.57227 26.9629 18.5059 26.9629L18.8965 26.4063C19.1113 26.1035 19.5898 25.5664 19.9707 25.2149C20.3418 24.8633 20.9863 24.3555 21.3867 24.0918C21.7871 23.8282 22.5586 23.3985 23.0957 23.1446C23.6328 22.8809 24.668 22.4219 25.3906 22.1192C26.1133 21.8067 26.9629 21.4356 27.832 20.9961V18.1641L27.3535 17.5586C27.0996 17.2168 26.6797 16.5918 26.4355 16.1621C26.1816 15.7325 25.8496 14.9805 25.6934 14.502C25.5371 14.0235 25.3516 13.3399 25.3027 12.9883C25.2441 12.6367 25.1953 12.0313 25.1953 11.6504C25.1953 11.1752 25.14 10.8334 25.0293 10.625C24.9023 10.3809 24.873 10.0782 24.8828 9.37503C24.8828 8.86722 24.9609 7.96878 25.0488 7.37308C25.1367 6.78714 25.3223 5.92776 25.459 5.46878C25.5859 5.0098 25.8301 4.3555 26.0059 4.00394C26.2109 3.56448 26.543 3.1348 27.041 2.62698C27.6074 2.06058 27.9785 1.78714 28.6133 1.47464C29.0723 1.25003 29.7266 0.976592 30.0781 0.878936C30.4297 0.771514 31.1035 0.62503 31.5918 0.546905C32.0703 0.46878 32.9004 0.410186 33.418 0.40042H33.4277ZM30.3809 2.39261C30.0879 2.49026 29.6191 2.67581 29.3555 2.81253C29.082 2.93948 28.6914 3.19339 28.4863 3.35941C28.2715 3.52542 27.9199 3.90628 27.6953 4.19925C27.4609 4.52151 27.1973 5.06839 27.0312 5.54691C26.8848 5.98636 26.709 6.75784 26.6309 7.25589C26.5527 7.74417 26.4551 8.52542 26.4258 8.9844C26.3672 9.73636 26.377 9.84378 26.5625 10.0879C26.7383 10.3125 26.8359 10.3516 27.2754 10.3516C27.6855 10.3418 28.0859 10.2149 29.2578 9.71683C30.0586 9.37503 31.0254 9.00394 31.4062 8.88675C31.7871 8.77933 32.4219 8.65237 32.8223 8.60355C33.2324 8.56448 33.877 8.56448 34.2871 8.61331C34.6875 8.66214 35.459 8.84769 35.9961 9.02347C36.5332 9.20901 37.4121 9.56058 37.9492 9.81448C38.4863 10.0684 39.1406 10.3223 39.4141 10.3809C39.6777 10.4395 40.0195 10.4492 40.166 10.42C40.3711 10.3711 40.4688 10.2637 40.5469 9.99026C40.625 9.75589 40.6348 9.33597 40.5957 8.83792C40.5566 8.40823 40.459 7.66605 40.3809 7.17776C40.293 6.69925 40.1172 5.96683 39.9902 5.56644C39.8535 5.16605 39.5996 4.61917 39.4336 4.3555C39.2578 4.09183 38.9258 3.7012 38.6816 3.48636C38.4375 3.27151 37.9395 2.94925 37.5586 2.77347C37.1777 2.58792 36.5234 2.35355 36.0938 2.23636C35.5078 2.08011 34.9414 2.02151 33.7988 1.99222C32.8027 1.97269 32.0508 2.00198 31.6016 2.08987C31.2207 2.15823 30.6738 2.29495 30.3809 2.39261ZM30.4785 10.9473C29.8633 11.2207 29.0625 11.5528 28.6914 11.6797C28.3203 11.8164 27.7637 11.9239 27.4023 11.9434C26.875 11.9629 26.7676 11.9922 26.7676 12.1387C26.7676 12.2266 26.8359 12.6465 26.9238 13.0664C27.0117 13.4766 27.207 14.1309 27.3633 14.502C27.5195 14.8828 27.8711 15.5371 28.1543 15.9668C28.4375 16.3965 29.0039 17.0996 29.4141 17.5293C29.8242 17.959 30.459 18.5157 30.8301 18.7696C31.2012 19.0137 31.7676 19.3457 32.0898 19.4922C32.4707 19.668 32.9004 19.7754 33.3105 19.8047C33.7793 19.834 34.1016 19.795 34.5312 19.6485C34.8535 19.541 35.3809 19.2969 35.7031 19.1114C36.0254 18.9258 36.5918 18.5157 36.9629 18.1934C37.334 17.8809 37.9492 17.2559 38.3203 16.7969C38.7109 16.3086 39.1895 15.5567 39.4727 14.9903C39.7363 14.4532 40.0098 13.75 40.0879 13.4278C40.166 13.1055 40.2539 12.6563 40.2832 12.4317L40.3418 12.0117C39.4141 12.0117 38.9551 11.9141 38.4375 11.7285C38.0078 11.5723 37.168 11.2305 36.582 10.9571C35.9863 10.6934 35.1855 10.4004 34.7949 10.3125C34.4141 10.2246 33.8184 10.1563 33.4766 10.166C33.1445 10.166 32.5879 10.2344 32.2363 10.3125C31.8848 10.3907 31.0938 10.6739 30.4785 10.9473ZM29.6875 22.2168C29.8438 22.5391 30.1855 23.0274 30.459 23.291C30.7324 23.5645 31.2988 23.9746 31.7187 24.209C32.1387 24.4434 32.666 24.7559 32.8906 24.9121L33.3105 25.1953C34.7852 24.3457 35.3906 23.9746 35.6055 23.8282C35.8203 23.6817 36.1816 23.3496 36.416 23.086C36.6504 22.8223 36.9238 22.3731 37.0312 22.0996C37.1582 21.7285 37.2168 21.3282 37.2168 20.6836L37.2266 19.7754C36.875 20.0391 36.5137 20.2637 36.1914 20.459C35.8691 20.6446 35.3418 20.8887 35.0195 21.0059C34.6973 21.1231 34.1309 21.2403 33.75 21.2696C33.2943 21.2956 32.8613 21.2565 32.4512 21.1524C32.1191 21.0645 31.5723 20.8594 31.2305 20.6934C30.8984 20.5176 30.3711 20.2149 30.0586 20.0098C29.7559 19.795 29.4824 19.6289 29.4531 19.6289C29.4238 19.6289 29.4043 20.0782 29.4043 20.6348C29.4043 21.5332 29.4336 21.6895 29.6875 22.2168ZM23.252 24.8438C22.959 25 22.4707 25.293 22.1777 25.4883C21.8848 25.6934 21.4062 26.0547 21.123 26.3086C20.8496 26.5528 20.6348 26.7969 20.6641 26.8555C20.6934 26.9141 21.4258 26.9532 22.5684 26.9532C24.1309 26.9532 24.4824 26.9825 24.7754 27.1289C24.9805 27.2168 25.2246 27.4317 25.3418 27.5879C25.5273 27.8516 25.5469 28.0371 25.5664 29.6192L25.5957 31.3477H32.627V26.8555C32.1387 26.3086 31.5723 25.8985 31.0645 25.6055C30.4688 25.2539 29.8926 24.8145 29.4531 24.375C29.0625 23.9746 28.6621 23.4668 28.5254 23.1739C28.3887 22.8907 28.2324 22.666 28.1836 22.666C28.125 22.6758 27.1191 23.1055 25.9375 23.6231C24.7559 24.1504 23.5449 24.6973 23.252 24.8438ZM37.7832 23.8379C37.5488 24.1407 37.1191 24.5899 36.8262 24.8242C36.5332 25.0684 35.957 25.4492 35.5566 25.6836C35.1562 25.9082 34.6582 26.2598 34.4531 26.4551L34.0918 26.8067V31.3477H47.959C47.959 30.7813 47.8809 30.2832 47.7734 29.8828C47.6758 29.4825 47.4707 28.9063 47.3242 28.6133C47.1777 28.3203 46.875 27.8125 46.6406 27.4903C46.416 27.168 45.9961 26.6895 45.7031 26.4258C45.4102 26.1621 44.9121 25.7617 44.5898 25.5371C44.2676 25.3028 43.5449 24.8731 42.9785 24.5801C42.4121 24.2871 41.1816 23.7305 40.2441 23.3496C39.3066 22.9688 38.5059 22.6563 38.4766 22.6563C38.4473 22.6563 38.3691 22.8028 38.3105 22.9785C38.2422 23.1446 38.0078 23.5352 37.7832 23.8379ZM1.96289 48.0469H24.2285V28.418H17.4902C17.4902 32.295 17.4512 33.3789 17.3926 33.4961C17.334 33.6035 17.1387 33.7598 16.9531 33.8379C16.7676 33.916 16.5625 33.9844 16.5137 33.9844C16.4551 33.9844 16.0645 33.7012 15.6348 33.3496L14.8535 32.7149C13.8281 33.5352 13.4277 33.8184 13.291 33.8672C13.1348 33.9258 12.959 33.9258 12.8027 33.8672C12.666 33.8184 12.2656 33.5352 11.8945 33.2422L11.2402 32.7149C9.98047 33.7207 9.69727 33.8867 9.48242 33.8867C9.29688 33.8867 9.10156 33.7989 8.94531 33.6426L8.70117 33.3985V28.418H1.96289V48.0469ZM10.2637 31.4453C10.7324 31.0547 10.9766 30.9571 11.1621 30.9571C11.416 30.9571 11.6406 31.084 12.1875 31.543L12.9004 32.1289C13.7402 31.4844 14.082 31.2207 14.1992 31.1133C14.3262 31.0157 14.5508 30.9375 14.7559 30.9473C14.9609 30.9473 15.2246 31.0547 15.4102 31.2012L15.7324 31.4453V28.418H10.2637V31.4453ZM2.88086 6.25003L20.1758 6.2598L20.5371 6.47464C20.7422 6.59183 20.9961 6.84573 21.1035 7.03128C21.2891 7.36331 21.2891 7.58792 21.3086 18.1153L21.084 18.4473C20.957 18.6328 20.7324 18.877 20.5859 18.9844C20.3418 19.1602 20.1465 19.1895 17.9785 19.2383V21.7774L17.6855 22.0215C17.5195 22.1582 17.3242 22.2657 17.2461 22.2657C17.168 22.2657 17.002 22.2168 16.875 22.1485C16.7578 22.0899 15.8691 21.4063 13.1445 19.2285L8.08594 19.2383C3.47656 19.2383 3.00781 19.2188 2.67578 19.0625C2.48047 18.9746 2.20703 18.75 1.81641 18.2325V12.7344C1.81641 7.31448 1.81641 7.23636 2.02148 6.96292C2.12891 6.81644 2.37305 6.59183 2.54883 6.46487L2.88086 6.25003ZM3.33984 17.6758H13.5449C14.0723 18.0274 14.6875 18.4961 15.2539 18.9356C15.8105 19.375 16.3086 19.7364 16.3477 19.7364C16.3867 19.7364 16.4258 19.3848 16.4258 18.9453C16.4258 18.252 16.4453 18.1446 16.6602 17.92C16.8945 17.6856 16.9336 17.6856 18.3203 17.6758H19.7461V7.81253H3.33984V17.6758ZM49.1406 35.1563L49.6289 35.6446V49.1211L49.1504 49.6094L41.1133 49.6192C33.2812 49.6192 33.0664 49.6192 32.5879 49.2383V35.5371L32.8125 35.3516C33.0371 35.166 33.3203 35.166 49.1406 35.166V35.1563ZM34.1016 48.0469H48.0664V36.7188H34.1016V48.0469ZM17.5977 10.0489L17.8418 10.3028C17.9883 10.4492 18.0859 10.6543 18.0859 10.8399C18.0859 11.0157 17.9883 11.2207 17.6074 11.6211H11.5723C6.34766 11.6211 5.50781 11.6016 5.3125 11.4746C5.19531 11.3867 5.06836 11.2012 5.03906 11.0547C5.00977 10.9082 5.03906 10.6641 5.10742 10.5176C5.17578 10.3614 5.32227 10.2051 5.42969 10.1563C5.54688 10.1075 8.25195 10.0586 17.5977 10.0586V10.0489ZM5.40039 13.9551H11.543C17.5586 13.9551 17.6953 13.9551 17.8906 14.1504C17.998 14.2578 18.0859 14.4727 18.0859 14.6387C18.0859 14.8145 17.9883 15.0196 17.6074 15.42H5.39062L5.18555 15.1465C5.07812 15 4.99023 14.7852 4.98047 14.668C4.98047 14.5606 5.06836 14.3457 5.18555 14.209L5.40039 13.9551ZM19.6484 39.2481C19.9414 39.2578 20.1074 39.375 20.8008 40.0586C21.25 40.4981 21.6797 40.9766 21.7578 41.1231C21.8457 41.2989 21.8652 41.4942 21.8164 41.6504C21.7773 41.7969 21.6602 41.9727 21.5527 42.041C21.4453 42.1192 21.2207 42.1778 21.0645 42.1778C20.8984 42.168 20.6934 42.0996 20.5957 42.002C20.4297 41.8457 20.4199 41.9239 20.4297 43.9063C20.4297 45.9278 20.4199 45.9961 20.2051 46.2207C20.0879 46.3575 19.9023 46.4746 19.7949 46.4746C19.6875 46.4844 19.5215 46.4942 19.4238 46.4844C19.3359 46.4746 19.1699 46.3867 19.0625 46.2793C18.877 46.0938 18.8672 45.9571 18.8672 41.8848L18.6426 42.0313C18.5254 42.1094 18.2812 42.1778 18.1055 42.1778C17.8809 42.1778 17.7344 42.0996 17.5977 41.9043C17.4805 41.7578 17.4023 41.5332 17.4219 41.3965C17.4316 41.25 17.7734 40.8203 18.3789 40.2051C19.209 39.3555 19.3555 39.2481 19.6484 39.2481ZM40.6641 39.2383C42.9688 39.2383 43.1543 39.2481 43.3789 39.4336C43.5547 39.5703 43.623 39.7168 43.623 39.961C43.623 40.166 43.5449 40.3809 43.4277 40.5078C43.2324 40.7129 43.1641 40.7129 40.7129 40.7129C38.3301 40.7129 38.1934 40.7032 38.0078 40.5176C37.8906 40.3907 37.8125 40.1953 37.8125 39.9805C37.8125 39.7657 37.8906 39.5606 38.0078 39.4434C38.1934 39.2578 38.3398 39.2481 40.6641 39.2383ZM10.4688 39.9317L10.6641 40.1953C10.7715 40.3418 10.8594 40.586 10.8594 40.7325C10.8594 40.8789 10.7715 41.0938 10.6641 41.2012C10.5566 41.3086 10.3223 41.416 10.1465 41.4453C9.98047 41.4844 8.63281 41.4942 4.49219 41.4453L4.30664 41.2012C4.19922 41.0645 4.11133 40.8106 4.11133 40.6348C4.12109 40.459 4.19922 40.2344 4.31641 40.127C4.50195 39.9414 4.63867 39.9317 10.4688 39.9317ZM7.49023 44.4239C10.3418 44.4239 10.4785 44.4336 10.6641 44.6192C10.7812 44.7364 10.8594 44.9414 10.8594 45.127C10.8594 45.3223 10.7715 45.5371 10.6348 45.6739C10.4199 45.8887 10.4102 45.8887 7.46094 45.8887C4.63867 45.8887 4.50195 45.8789 4.31641 45.6934C4.19922 45.5664 4.12109 45.3711 4.12109 45.1563C4.12109 44.9414 4.19922 44.7364 4.31641 44.6192C4.50195 44.4336 4.63867 44.4239 7.49023 44.4239Z" fill="#E3C05C"/>
</g>
<defs>
<clipPath id="clip0_810_104">
<rect width="50" height="50" fill="white"/>
</clipPath>
</defs>
</svg>
